<?xml version="1.0" encoding="UTF-8" standalone="no"?>
<svg
   version="1.1"
   viewBox="0.00 0.00 1909.00 1300.00"
   id="svg34"
   sodipodi:docname="farmer-logo-rev.svg"
   inkscape:version="1.4 (86a8ad7, 2024-10-11)"
   xmlns:inkscape="http://www.inkscape.org/namespaces/inkscape"
   xmlns:sodipodi="http://sodipodi.sourceforge.net/DTD/sodipodi-0.dtd"
   xmlns="http://www.w3.org/2000/svg"
   xmlns:svg="http://www.w3.org/2000/svg">
  <defs
     id="defs34" />
  <sodipodi:namedview
     id="namedview34"
     pagecolor="#ffffff"
     bordercolor="#000000"
     borderopacity="0.25"
     inkscape:showpageshadow="2"
     inkscape:pageopacity="0.0"
     inkscape:pagecheckerboard="0"
     inkscape:deskcolor="#d1d1d1"
     inkscape:zoom="0.87153846"
     inkscape:cx="954.06002"
     inkscape:cy="650"
     inkscape:window-width="2560"
     inkscape:window-height="1377"
     inkscape:window-x="-8"
     inkscape:window-y="-8"
     inkscape:window-maximized="1"
     inkscape:current-layer="svg34" />
  <g
     stroke-width="2.00"
     fill="none"
     stroke-linecap="butt"
     id="g3"
     style="fill:#ffffff">
    <path
       stroke="#7f7f7f"
       vector-effect="non-scaling-stroke"
       d="   M 1005.97 501.86   Q 1008.32 502.29 1013.00 502.40   Q 1021.22 502.58 1030.05 502.42   A 0.55 0.55 0.0 0 1 1030.60 502.95   L 1031.70 532.89   Q 1031.72 533.34 1032.17 533.33   L 1032.47 533.31   Q 1032.69 533.31 1032.69 533.10   L 1032.96 502.86   A 0.54 0.54 0.0 0 1 1033.50 502.33   L 1060.48 502.33   Q 1060.64 502.33 1060.63 502.17   L 1060.62 501.83   Q 1060.58 500.65 1059.39 500.66   L 1033.46 500.95   A 0.55 0.54 -0.0 0 1 1032.91 500.41   L 1032.63 475.83   A 0.54 0.53 0.0 0 0 1032.09 475.30   L 1031.69 475.30   A 0.73 0.73 0.0 0 0 1030.96 476.02   L 1030.74 499.98   A 1.00 0.99 -90.0 0 1 1029.76 500.97   L 1006.05 501.20"
       id="path1"
       style="fill:#ffffff" />
    <path
       stroke="#7f7f7f"
       vector-effect="non-scaling-stroke"
       d="   M 1036.99 291.28   Q 1036.88 291.44 1036.85 291.58   A 0.34 0.34 0.0 0 0 1037.13 292.00   Q 1045.16 293.03 1053.10 292.18   Q 1053.33 292.16 1053.32 291.93   L 1053.31 291.52   A 0.54 0.53 1.2 0 0 1052.82 291.01   Q 1044.95 290.33 1036.99 291.28"
       id="path2"
       style="fill:#ffffff" />
    <path
       stroke="#7f7f7f"
       vector-effect="non-scaling-stroke"
       d="   M 709.20 503.31   Q 709.51 503.98 710.36 504.02   Q 717.14 504.32 728.00 504.31   Q 730.86 504.31 733.88 503.76   A 0.91 0.90 84.7 0 1 734.95 504.65   L 734.95 540.48   A 0.49 0.49 0.0 0 0 735.44 540.97   L 736.01 540.97   A 0.83 0.72 -90.0 0 0 736.73 540.14   L 736.73 504.71   A 0.94 0.93 6.0 0 1 737.86 503.80   Q 739.17 504.07 740.55 504.12   Q 749.43 504.40 762.12 503.91   Q 762.29 503.90 762.29 503.73   L 762.29 503.24   A 0.56 0.56 0.0 0 0 761.76 502.68   Q 749.65 501.95 737.64 502.91   Q 737.13 502.95 736.75 502.61   Q 735.79 501.77 734.90 502.59   Q 734.51 502.95 733.98 502.91   Q 722.21 502.02 710.47 502.68"
       id="path3"
       style="fill:#ffffff" />
  </g>
  <g
     id="g20"
     style="fill:#ffffff;fill-opacity:1">
    <path
       fill="#000000"
       d="   M 454.51 863.36   Q 454.62 863.29 454.75 863.20   Q 454.95 863.06 455.01 862.83   C 456.06 859.21 457.67 855.78 458.67 851.83   C 463.97 830.88 468.00 809.83 467.07 789.02   C 466.55 777.32 465.40 762.08 462.21 748.77   Q 461.45 745.59 458.97 733.77   Q 458.85 733.18 458.96 732.86   A 0.46 0.45 -58.4 0 1 459.70 732.68   Q 461.47 734.31 462.54 736.77   Q 470.05 753.98 474.96 769.76   Q 480.60 787.86 484.01 810.93   Q 488.43 840.83 485.14 875.05   C 484.98 876.78 484.22 878.19 484.33 879.91   A 0.24 0.24 0.0 0 0 484.68 880.11   Q 484.98 879.95 485.11 879.61   C 490.37 865.81 494.45 851.67 496.18 837.24   Q 497.68 824.71 497.46 804.19   C 497.37 796.34 495.84 787.54 494.58 777.93   C 493.13 767.02 490.15 756.07 487.31 745.44   Q 487.05 744.47 487.06 744.40   Q 487.15 742.26 488.36 744.21   Q 490.02 746.92 490.92 748.84   C 505.56 780.01 515.77 815.22 516.34 850.00   Q 516.63 867.94 515.48 878.01   Q 513.85 892.24 513.51 895.50   Q 513.42 896.42 512.52 898.76   Q 512.44 898.96 512.63 899.07   L 513.04 899.31   Q 513.24 899.42 513.35 899.22   Q 515.25 895.52 515.76 894.24   C 526.04 868.72 529.39 839.19 526.00 811.77   Q 525.38 806.73 524.96 802.75   Q 524.88 802.05 525.05 801.68   A 0.53 0.53 0.0 0 1 525.99 801.63   Q 526.94 803.21 528.54 806.99   Q 536.59 826.09 540.79 851.03   Q 544.69 874.26 544.74 889.97   C 544.77 898.10 544.20 904.44 543.45 915.19   Q 543.26 917.89 544.56 915.51   C 557.39 892.09 559.43 863.06 553.66 837.09   Q 548.12 812.17 537.48 791.26   Q 532.01 780.51 521.11 760.67   Q 520.27 759.13 520.06 757.43   Q 519.79 755.24 521.26 756.90   C 535.61 773.15 547.50 790.83 558.35 810.86   Q 581.01 852.70 586.91 901.35   Q 587.59 906.95 587.58 912.25   Q 587.56 926.02 585.81 939.89   Q 585.73 940.48 586.32 940.39   Q 586.76 940.32 586.97 939.73   C 594.73 917.22 598.00 892.01 594.47 869.55   Q 591.37 849.84 586.13 835.35   C 579.58 817.20 570.70 799.68 562.05 783.15   Q 560.82 780.79 563.43 781.77   Q 564.19 782.06 565.38 783.57   C 593.65 819.29 613.40 863.50 618.67 908.35   C 620.45 923.54 620.39 940.08 619.60 956.42   Q 619.40 960.52 620.70 956.63   C 628.65 932.77 631.63 908.29 628.45 883.85   Q 624.26 851.65 611.54 821.84   C 610.34 819.01 609.37 816.02 608.68 813.48   Q 608.23 811.86 609.60 812.83   Q 610.58 813.52 611.51 815.02   Q 633.35 850.10 644.40 889.95   C 649.19 907.24 651.77 925.67 651.53 942.78   Q 651.26 962.55 648.07 983.21   Q 647.35 987.88 649.24 983.55   C 657.32 965.04 661.44 945.10 662.58 924.41   Q 663.02 916.42 661.78 904.46   Q 659.86 885.87 659.12 882.42   Q 656.99 872.45 654.85 862.47   Q 654.74 861.95 654.90 861.63   A 0.65 0.65 0.0 0 1 655.87 861.42   Q 657.72 862.84 658.73 865.04   Q 659.70 867.16 667.17 883.36   Q 670.66 890.92 674.29 904.97   Q 680.81 930.20 680.85 957.84   Q 680.87 970.93 679.72 986.03   Q 678.96 996.02 676.49 1005.91   Q 676.39 1006.33 676.54 1006.55   Q 676.64 1006.69 676.80 1006.75   Q 677.19 1006.90 677.39 1006.54   Q 679.95 1001.91 680.80 999.80   Q 691.39 973.40 691.82 946.00   Q 691.97 936.25 692.34 926.51   Q 692.42 924.40 692.55 923.64   Q 693.02 920.86 694.15 923.60   Q 696.98 930.50 698.26 934.93   Q 703.46 952.92 709.31 978.61   Q 714.45 1001.20 715.25 1019.12   Q 716.82 1054.46 713.93 1089.20   A 0.53 0.53 0.0 0 1 713.10 1089.59   Q 673.66 1062.02 632.63 1039.64   C 606.75 1025.52 582.87 1012.47 555.81 999.08   C 527.17 984.92 498.77 970.44 469.81 957.23   Q 463.40 954.31 454.08 949.97   Q 388.00 919.21 324.78 891.41   C 311.09 885.39 295.90 879.07 281.78 872.88   Q 272.09 868.63 263.36 865.12   Q 217.09 846.54 175.58 831.03   C 161.22 825.66 145.72 820.40 129.96 814.80   Q 128.23 814.18 126.82 813.45   A 1.51 1.51 0.0 0 1 126.08 811.68   Q 127.67 806.39 129.89 802.45   Q 139.86 784.77 151.42 770.42   C 166.99 751.10 183.77 734.50 205.34 719.10   Q 240.47 694.03 283.26 676.48   Q 307.29 666.62 328.74 659.25   Q 338.35 655.94 363.43 648.45   Q 397.56 638.25 430.18 632.06   Q 433.65 631.40 436.88 630.58   A 1.34 1.34 0.0 0 0 437.90 629.29   L 438.13 602.92   A 0.98 0.97 4.8 0 0 437.30 601.95   C 420.28 599.48 407.12 584.53 403.14 568.56   C 401.39 561.54 402.33 555.04 405.10 548.41   C 405.97 546.35 407.32 545.73 409.03 544.86   A 1.70 1.69 -26.3 0 0 409.79 542.63   C 409.27 541.53 408.38 539.84 408.35 538.40   C 407.92 520.40 422.02 507.13 438.70 503.87   C 447.27 502.20 455.19 502.84 463.37 506.89   Q 473.74 512.02 480.62 521.65   C 487.27 530.95 491.99 541.84 488.96 553.07   A 2.72 2.72 0.0 0 0 489.95 555.94   C 494.16 559.12 496.73 563.80 497.36 569.05   Q 497.93 573.71 494.98 580.11   Q 487.78 595.74 470.76 600.75   C 464.75 602.52 455.50 604.28 449.05 602.13   A 1.18 1.18 0.0 0 0 447.50 603.28   C 447.53 604.77 447.93 606.68 447.84 608.25   Q 447.31 617.62 447.29 627.37   A 0.80 0.80 0.0 0 0 448.23 628.16   C 474.05 623.69 498.53 620.43 527.50 616.90   Q 529.73 616.63 528.22 614.97   Q 525.61 612.10 522.41 606.52   A 0.29 0.29 0.0 0 1 522.68 606.09   Q 524.73 606.20 525.97 606.81   Q 535.27 611.43 542.39 613.78   A 0.51 0.51 0.0 0 0 543.05 613.19   Q 541.61 606.86 538.42 601.06   C 537.93 600.18 537.80 598.94 537.55 598.30   Q 535.12 592.23 530.28 582.71   Q 530.17 582.49 530.23 582.02   A 0.77 0.31 40.4 0 1 531.20 582.34   C 538.30 589.85 541.80 595.11 550.07 606.69   Q 550.29 607.00 550.35 607.02   A 0.65 0.62 -86.4 0 0 551.15 606.28   C 549.33 595.35 546.09 585.72 543.90 575.10   C 543.47 573.06 542.27 570.32 541.98 568.06   Q 541.65 565.44 542.89 567.77   Q 549.17 579.58 554.22 591.61   Q 554.41 592.08 554.59 592.34   A 0.70 0.69 24.6 0 0 555.86 591.87   C 554.68 583.34 553.83 576.05 554.87 566.93   Q 554.88 566.81 555.00 566.81   L 555.34 566.82   Q 555.44 566.82 555.45 566.92   Q 556.49 574.59 557.39 588.01   Q 557.62 591.37 556.49 593.95   Q 556.30 594.39 556.39 594.86   L 557.56 600.57   Q 557.93 602.35 558.83 600.77   L 574.19 573.88   Q 575.97 570.77 575.52 574.32   Q 575.39 575.36 574.65 577.73   Q 571.97 586.26 571.14 590.24   Q 569.41 598.65 568.59 601.73   Q 567.08 607.42 565.60 613.12   Q 565.42 613.81 565.54 614.28   A 0.56 0.56 0.0 0 0 566.24 614.67   C 569.16 613.84 571.55 612.23 573.19 609.35   Q 574.74 606.62 576.70 602.13   Q 577.50 600.28 577.16 602.26   Q 576.19 607.94 574.32 611.29   Q 573.51 612.74 575.16 612.57   L 634.02 606.53   A 0.96 0.95 -3.0 0 0 634.88 605.58   Q 635.46 513.15 634.84 443.37   Q 634.84 443.34 634.66 433.71   A 1.34 1.34 0.0 0 0 633.23 432.39   L 593.56 434.80   A 0.52 0.51 -77.6 0 1 593.08 434.04   C 601.49 418.56 610.48 404.20 618.90 389.31   Q 623.19 381.71 629.11 372.11   Q 655.36 329.53 681.97 282.50   C 683.18 280.36 686.73 274.29 689.62 272.62   Q 690.98 271.84 696.77 270.10   Q 726.31 261.22 800.83 238.20   A 1.48 1.48 0.0 0 0 801.88 236.77   L 801.11 167.53   Q 801.11 167.08 800.66 167.04   L 780.54 165.31   A 0.68 0.67 -75.9 0 1 779.98 164.37   Q 780.85 162.37 782.43 160.45   Q 790.26 150.96 803.71 136.96   Q 830.78 108.79 853.27 86.43   Q 854.38 85.33 855.59 86.32   Q 856.83 87.33 858.34 88.94   Q 881.14 113.25 904.94 140.48   Q 914.61 151.55 922.54 162.55   Q 923.14 163.39 923.54 164.43   Q 923.79 165.11 923.08 165.25   L 905.20 168.92   Q 904.26 169.11 904.25 170.07   L 903.86 213.52   Q 903.85 214.50 904.79 214.21   C 942.74 202.39 964.18 195.00 1019.33 176.59   Q 1021.56 175.84 1027.25 174.27   Q 1028.67 173.88 1030.66 175.70   Q 1061.44 203.89 1080.97 223.13   C 1085.38 227.47 1088.58 228.00 1095.48 229.53   Q 1138.09 238.98 1180.74 248.24   C 1183.66 248.87 1189.48 250.24 1192.40 252.70   Q 1196.36 256.03 1197.52 258.26   Q 1200.00 263.01 1203.33 270.35   Q 1223.66 315.12 1248.05 371.94   C 1256.35 391.27 1265.20 411.32 1272.44 429.76   Q 1272.95 431.04 1273.18 431.81   Q 1273.56 433.02 1272.30 432.91   L 1251.99 431.16   A 1.13 1.13 0.0 0 0 1250.76 432.29   L 1250.76 611.41   A 1.12 1.12 0.0 0 0 1251.81 612.53   Q 1282.80 614.62 1331.29 618.74   C 1354.96 620.75 1377.64 623.49 1404.37 626.51   A 1.01 1.01 0.0 0 0 1405.48 625.33   C 1402.20 606.00 1400.11 593.58 1398.88 577.73   A 1.93 1.92 -83.8 0 0 1397.52 576.03   Q 1373.51 568.71 1358.01 549.73   C 1346.05 535.08 1336.46 507.50 1355.88 493.88   A 1.96 1.95 59.1 0 0 1356.50 491.40   Q 1351.72 481.83 1350.18 471.51   C 1348.09 457.54 1352.43 445.12 1361.56 434.31   Q 1369.45 424.98 1379.58 418.79   A 2.86 2.85 78.2 0 0 1380.93 416.72   Q 1382.14 407.44 1386.71 399.21   C 1396.66 381.25 1411.15 368.65 1430.85 364.10   C 1450.83 359.48 1476.50 367.36 1488.90 384.21   C 1500.08 399.40 1499.98 417.76 1492.44 435.12   C 1491.53 437.22 1490.01 439.10 1488.70 440.97   A 0.35 0.35 0.0 0 0 1489.02 441.52   Q 1491.62 441.27 1493.26 441.57   Q 1505.89 443.85 1511.84 455.43   C 1517.15 465.73 1514.22 477.97 1507.43 486.91   Q 1503.05 492.67 1498.20 497.79   A 1.02 1.02 0.0 0 0 1498.69 499.48   C 1500.37 499.91 1502.07 500.36 1503.41 501.44   C 1523.82 517.75 1508.01 541.73 1493.01 554.29   Q 1468.28 575.00 1436.94 577.86   Q 1424.58 578.99 1413.07 578.20   Q 1411.57 578.10 1411.67 579.60   C 1412.74 595.44 1415.38 605.86 1419.25 627.70   A 1.65 1.62 -0.2 0 0 1420.60 629.02   Q 1457.76 635.04 1482.19 640.13   C 1527.94 649.65 1570.57 661.43 1614.18 678.15   Q 1654.74 693.71 1692.18 716.11   C 1721.50 733.65 1746.90 754.31 1767.69 781.13   C 1773.69 788.87 1778.58 797.53 1783.06 805.85   A 0.40 0.39 -20.7 0 1 1782.80 806.42   Q 1773.17 808.77 1766.00 809.94   Q 1759.20 811.05 1739.16 816.95   Q 1716.61 823.59 1698.07 830.35   Q 1637.02 852.62 1577.09 881.36   Q 1563.10 888.07 1557.31 891.00   Q 1519.29 910.23 1486.22 928.05   Q 1425.45 960.83 1398.53 976.77   C 1375.15 990.62 1341.31 1010.30 1313.79 1027.49   Q 1297.91 1037.42 1296.83 1038.08   Q 1250.41 1066.45 1210.97 1092.34   A 0.81 0.81 0.0 0 1 1209.73 1091.77   Q 1207.36 1074.86 1204.77 1056.98   C 1203.63 1049.12 1202.24 1042.95 1200.42 1033.88   C 1199.07 1027.13 1197.31 1024.66 1191.62 1019.90   Q 1184.91 1014.30 1183.38 1012.37   Q 1173.46 999.89 1172.78 999.02   Q 1171.22 997.01 1170.89 994.87   A 0.47 0.46 89.5 0 1 1171.41 994.34   Q 1180.70 995.66 1190.11 999.40   A 0.41 0.41 0.0 0 0 1190.66 998.94   L 1190.59 998.60   A 0.78 0.76 -82.5 0 0 1190.17 998.04   Q 1187.13 996.51 1184.15 995.25   C 1178.88 993.00 1173.14 989.20 1170.30 985.53   C 1165.46 979.30 1162.06 975.36 1159.68 969.65   A 0.47 0.47 0.0 0 1 1160.12 969.00   Q 1163.61 969.05 1165.80 969.95   Q 1177.43 974.73 1186.87 982.16   Q 1187.18 982.40 1187.50 982.20   A 0.51 0.50 54.9 0 0 1187.63 981.44   C 1183.22 976.24 1178.93 973.59 1171.67 968.21   Q 1165.50 963.63 1160.74 956.45   Q 1155.84 949.05 1151.42 941.10   Q 1150.17 938.85 1152.72 939.22   Q 1155.15 939.58 1158.22 940.84   Q 1166.88 944.41 1169.82 946.43   Q 1174.41 949.60 1179.24 953.01   Q 1179.45 953.16 1179.71 953.10   L 1180.48 952.95   Q 1181.03 952.83 1180.57 952.50   Q 1165.70 941.69 1159.00 934.09   C 1154.20 928.64 1146.03 918.78 1145.44 911.90   A 2.12 2.11 -6.1 0 1 1147.28 909.63   Q 1149.72 909.31 1151.97 910.52   Q 1155.53 912.43 1164.02 918.11   A 0.39 0.38 -57.9 0 0 1164.57 917.98   L 1164.78 917.62   Q 1164.96 917.31 1164.70 917.07   Q 1158.68 911.36 1153.05 905.77   Q 1149.14 901.90 1147.84 895.10   C 1145.57 883.28 1144.63 875.88 1145.12 867.45   A 0.63 0.63 0.0 0 1 1145.99 866.91   Q 1147.05 867.35 1147.85 868.45   Q 1157.01 881.05 1166.30 895.32   Q 1170.56 901.86 1174.89 910.68   C 1178.48 918.00 1181.19 928.63 1183.09 935.10   C 1183.90 937.87 1184.07 940.52 1184.34 943.24   Q 1184.65 946.32 1185.54 943.37   Q 1185.80 942.54 1186.66 940.96   A 1.71 1.70 -49.2 0 1 1189.52 940.75   Q 1194.41 947.26 1196.11 956.32   A 0.79 0.78 54.8 0 0 1197.56 956.57   L 1198.20 955.46   A 2.55 2.50 54.0 0 0 1198.47 953.64   Q 1197.48 949.32 1195.86 945.27   Q 1194.93 942.94 1191.90 939.48   C 1186.49 933.29 1180.92 923.64 1180.84 915.11   A 0.62 0.61 12.4 0 1 1181.72 914.55   Q 1185.78 916.49 1192.22 921.22   Q 1192.57 921.48 1192.85 921.43   A 0.79 0.39 -12.3 0 0 1193.59 920.84   Q 1192.74 918.75 1191.67 916.94   Q 1185.27 906.17 1182.58 899.89   C 1179.80 893.40 1177.92 884.87 1176.11 878.67   Q 1175.79 877.58 1176.70 878.26   C 1180.28 880.97 1184.28 883.02 1187.88 886.58   C 1190.22 888.90 1192.68 892.29 1195.31 894.15   Q 1197.93 896.00 1196.62 893.06   Q 1194.84 889.03 1194.39 883.50   Q 1193.57 873.50 1194.40 856.37   C 1194.74 849.29 1194.56 843.37 1194.42 835.97   A 0.59 0.59 0.0 0 1 1195.30 835.44   Q 1195.93 835.78 1196.39 836.72   Q 1203.27 850.71 1205.86 859.65   C 1209.94 873.73 1211.84 887.48 1214.30 902.77   Q 1215.21 908.41 1215.21 917.58   Q 1215.22 923.82 1213.94 927.73   A 0.52 0.51 87.9 0 0 1214.62 928.37   L 1215.11 928.16   A 0.22 0.21 -86.3 0 0 1215.24 928.04   Q 1217.31 923.96 1221.48 921.48   A 1.58 1.57 -24.7 0 1 1223.78 922.33   Q 1224.53 924.57 1224.75 927.00   Q 1225.94 939.89 1226.34 946.51   Q 1227.27 961.72 1224.89 978.42   C 1223.51 988.06 1220.93 1001.85 1219.89 1013.46   Q 1219.13 1021.90 1217.47 1029.31   Q 1217.02 1031.30 1218.58 1029.90   Q 1219.14 1029.41 1219.79 1028.31   C 1222.45 1023.80 1224.53 1018.98 1226.25 1013.39   C 1229.05 1004.29 1231.36 996.84 1232.19 987.50   C 1233.79 969.40 1234.06 954.31 1232.00 937.06   C 1231.20 930.28 1230.44 919.80 1229.13 912.41   Q 1226.64 898.43 1222.06 883.07   Q 1218.08 869.75 1217.07 864.72   Q 1216.51 861.92 1216.38 859.45   A 0.74 0.74 0.0 0 1 1217.32 858.70   C 1225.31 861.02 1231.14 868.72 1235.46 875.11   Q 1236.63 876.83 1236.68 874.75   Q 1236.71 873.47 1236.25 871.81   C 1234.77 866.36 1232.57 861.86 1234.54 856.79   C 1238.64 846.22 1240.13 840.97 1243.10 836.50   A 1.46 1.46 0.0 0 1 1245.43 836.36   C 1248.82 840.34 1248.42 847.85 1248.36 852.78   Q 1248.22 864.40 1248.46 865.76   Q 1250.68 878.30 1255.43 890.10   C 1261.20 904.43 1265.00 915.26 1270.87 927.63   Q 1274.22 934.72 1279.86 947.60   C 1281.16 950.57 1282.41 952.69 1284.36 956.40   Q 1285.38 958.34 1285.38 956.15   C 1285.37 951.79 1284.41 947.91 1284.01 943.37   Q 1282.66 928.06 1281.87 921.17   Q 1279.50 900.26 1274.93 870.02   Q 1272.14 851.48 1268.09 831.71   Q 1267.77 830.16 1267.54 827.28   Q 1267.25 823.76 1269.94 826.46   Q 1270.36 826.88 1270.87 828.46   Q 1271.17 829.38 1271.73 830.53   C 1276.85 840.96 1282.69 852.34 1287.49 862.75   Q 1305.21 901.08 1324.86 936.92   Q 1327.09 940.99 1326.49 936.39   C 1325.69 930.27 1324.25 923.90 1323.09 916.49   Q 1319.12 891.16 1316.60 878.87   Q 1312.32 857.92 1307.98 836.99   C 1305.91 827.01 1302.42 814.40 1300.71 805.09   Q 1300.62 804.58 1301.07 804.83   Q 1302.61 805.69 1303.30 807.01   Q 1315.42 830.01 1323.59 844.65   Q 1327.42 851.49 1333.00 862.27   Q 1348.45 892.13 1358.49 909.81   Q 1361.19 914.56 1362.65 916.91   Q 1366.04 922.39 1364.42 916.16   Q 1362.50 908.77 1361.31 901.06   Q 1359.06 886.36 1358.97 885.86   Q 1354.91 863.19 1348.81 833.25   Q 1344.66 812.88 1342.50 797.36   Q 1342.27 795.71 1343.22 797.07   Q 1349.24 805.69 1352.92 812.16   Q 1368.77 840.03 1371.44 844.92   Q 1384.21 868.34 1402.07 899.55   Q 1402.29 899.94 1402.71 900.27   A 0.46 0.45 -67.0 0 0 1403.44 899.97   Q 1403.68 898.12 1403.17 896.09   Q 1401.36 888.90 1399.62 879.88   Q 1395.84 860.31 1391.04 844.23   Q 1380.53 809.05 1374.08 792.89   Q 1369.77 782.10 1366.56 774.47   Q 1366.00 773.14 1365.90 772.04   Q 1365.80 770.86 1366.49 770.45   A 0.70 0.69 57.4 0 1 1367.41 770.66   C 1384.25 794.59 1399.78 819.51 1413.69 845.40   Q 1424.59 865.70 1434.93 884.55   Q 1437.23 888.74 1436.11 884.09   Q 1435.00 879.49 1434.21 874.00   C 1433.49 868.95 1431.82 861.61 1430.74 856.04   Q 1430.02 852.33 1428.94 848.25   Q 1421.88 821.76 1413.16 796.59   C 1409.68 786.54 1404.47 775.08 1400.49 764.90   Q 1399.70 762.89 1401.95 764.26   Q 1402.25 764.45 1402.88 765.32   Q 1409.16 773.97 1421.83 793.09   C 1432.22 808.78 1441.22 825.91 1449.96 842.50   Q 1463.09 867.42 1465.84 872.36   A 0.46 0.46 0.0 0 0 1466.56 872.47   Q 1467.10 871.94 1466.91 870.83   C 1464.36 855.93 1461.69 841.01 1457.28 827.20   Q 1447.06 795.15 1430.94 767.23   Q 1426.70 759.89 1416.69 743.78   Q 1415.85 742.44 1415.40 740.79   A 0.39 0.37 -1.9 0 1 1415.86 740.33   Q 1416.19 740.39 1417.00 741.15   Q 1419.16 743.20 1423.62 748.26   Q 1448.70 776.75 1468.53 810.57   Q 1478.22 827.08 1489.89 849.18   Q 1493.00 855.06 1495.78 859.16   Q 1497.99 862.42 1497.72 858.49   Q 1497.66 857.62 1497.31 855.97   Q 1494.47 842.52 1492.33 830.96   Q 1491.00 823.77 1488.23 816.13   Q 1480.15 793.89 1472.02 779.62   Q 1465.24 767.71 1457.16 755.61   Q 1455.38 752.94 1453.69 749.80   Q 1453.31 749.10 1453.41 748.59   A 0.54 0.54 0.0 0 1 1454.33 748.32   C 1458.68 752.72 1463.26 756.82 1467.34 761.38   Q 1481.18 776.88 1491.50 790.10   C 1505.97 808.66 1517.48 830.46 1528.18 849.58   Q 1529.70 852.30 1529.60 849.19   C 1529.46 844.79 1527.62 839.49 1526.94 836.50   C 1522.54 817.25 1513.96 798.98 1502.57 783.21   Q 1489.74 765.44 1476.00 751.77   Q 1472.92 748.71 1458.81 736.98   Q 1451.17 730.62 1442.69 725.25   C 1421.63 711.91 1399.97 700.19 1377.33 690.59   Q 1346.12 677.35 1302.93 663.09   Q 1299.51 661.96 1297.17 660.23   Q 1295.44 658.95 1297.58 659.19   Q 1304.05 659.93 1327.51 663.94   Q 1356.24 668.84 1383.42 677.86   C 1397.82 682.64 1413.24 689.49 1425.70 695.52   Q 1435.92 700.47 1452.70 710.88   Q 1501.39 741.09 1531.44 789.86   Q 1545.75 813.09 1555.92 834.64   Q 1557.29 837.55 1557.11 834.50   Q 1557.10 834.31 1556.90 833.23   Q 1554.66 821.28 1551.00 807.75   C 1546.54 791.22 1539.49 776.50 1530.92 761.82   C 1516.67 737.41 1497.43 717.47 1475.33 700.44   C 1472.67 698.39 1470.25 696.19 1468.13 693.87   Q 1465.66 691.17 1469.01 692.48   Q 1469.49 692.67 1471.34 693.69   Q 1487.26 702.53 1501.72 714.29   C 1512.05 722.68 1521.31 730.37 1529.71 739.34   Q 1546.07 756.84 1557.97 774.27   Q 1568.30 789.41 1579.48 807.90   C 1582.46 812.83 1584.74 817.98 1587.80 823.16   Q 1589.99 826.87 1589.19 822.63   Q 1588.20 817.35 1585.06 805.00   C 1578.54 779.34 1567.66 756.85 1551.64 736.84   C 1543.60 726.79 1533.41 716.08 1525.68 708.91   Q 1523.31 706.71 1522.91 705.51   Q 1522.03 702.90 1524.28 704.45   C 1539.59 715.04 1553.75 727.93 1566.96 740.27   C 1572.56 745.51 1578.93 752.27 1584.55 759.07   Q 1605.07 783.90 1621.67 812.31   Q 1621.95 812.79 1622.38 812.44   Q 1623.21 811.74 1622.83 810.28   Q 1620.76 802.30 1617.70 791.63   Q 1610.39 766.10 1597.28 748.54   C 1587.23 735.08 1577.37 725.69 1564.55 713.14   Q 1564.05 712.65 1563.86 712.27   A 0.64 0.64 0.0 0 1 1564.54 711.35   Q 1566.90 711.77 1569.91 714.03   Q 1599.68 736.40 1616.15 752.43   Q 1629.97 765.87 1643.96 783.79   C 1647.61 788.47 1651.53 794.53 1655.52 799.49   Q 1658.63 803.36 1657.45 798.54   C 1654.68 787.28 1651.90 776.65 1646.88 767.15   Q 1641.72 757.40 1637.01 751.52   Q 1625.47 737.16 1611.89 725.21   Q 1610.24 723.75 1609.72 722.10   A 0.67 0.67 0.0 0 1 1610.61 721.28   Q 1615.08 723.11 1619.12 725.74   C 1633.07 734.80 1647.57 745.33 1660.05 757.50   Q 1677.70 774.70 1690.76 791.47   Q 1692.22 793.36 1692.20 791.04   Q 1692.20 790.36 1691.86 788.80   Q 1690.60 782.94 1687.35 774.65   C 1681.12 758.81 1670.45 748.46 1657.33 736.40   Q 1655.39 734.63 1654.49 732.89   A 0.66 0.66 0.0 0 1 1655.15 731.93   C 1659.81 732.42 1665.78 736.05 1670.37 738.96   Q 1687.56 749.83 1694.09 755.50   Q 1707.64 767.25 1712.52 772.36   Q 1720.19 780.42 1727.30 787.88   Q 1729.18 789.85 1728.40 787.24   Q 1727.11 782.92 1726.72 781.52   Q 1721.26 761.76 1705.71 749.32   C 1693.37 739.44 1681.79 733.18 1666.54 725.71   Q 1626.46 706.08 1584.82 692.76   C 1566.72 686.97 1544.34 680.43 1523.58 675.31   Q 1469.92 662.06 1413.25 654.61   Q 1381.89 650.49 1381.35 650.42   Q 1346.17 645.57 1313.08 642.37   Q 1219.64 633.33 1134.01 631.54   Q 1109.37 631.02 1064.25 629.83   Q 1014.16 628.51 976.99 627.48   Q 964.70 627.14 956.99 627.03   Q 837.91 625.39 722.26 627.24   Q 687.58 627.79 660.01 629.62   C 630.08 631.61 593.21 633.62 561.52 637.16   Q 521.22 641.65 508.38 643.13   Q 471.60 647.35 433.02 654.28   Q 425.08 655.70 413.44 658.25   Q 386.02 664.27 371.19 667.95   Q 348.46 673.59 322.51 682.26   Q 280.71 696.23 242.98 719.76   Q 226.06 730.32 212.32 745.05   Q 208.51 749.14 206.58 752.31   Q 196.52 768.88 192.90 785.65   Q 191.60 791.70 194.35 786.16   Q 199.70 775.38 209.09 760.78   A 0.56 0.56 0.0 0 1 209.96 760.69   Q 211.93 762.70 213.29 765.95   Q 217.87 776.92 219.35 789.24   Q 219.48 790.33 219.10 794.08   Q 219.05 794.52 219.49 794.61   Q 219.60 794.63 219.74 794.61   Q 220.07 794.55 220.17 794.24   C 220.85 792.15 221.75 790.31 222.29 788.06   C 225.12 776.34 228.56 764.62 228.66 752.54   Q 228.71 746.33 228.68 744.52   Q 228.66 743.50 229.38 744.23   C 235.80 750.84 238.18 758.06 241.64 768.24   Q 246.75 783.35 248.71 798.87   A 0.76 0.74 -84.5 0 0 249.21 799.49   Q 249.40 799.55 249.50 799.55   A 0.40 0.31 1.3 0 0 249.86 799.28   Q 253.69 774.03 254.29 764.50   Q 255.32 748.02 252.70 731.06   A 0.65 0.65 0.0 0 1 253.66 730.39   Q 255.69 731.55 256.97 733.64   C 267.81 751.38 274.14 771.78 277.73 792.51   Q 278.54 797.22 279.22 799.36   Q 279.50 800.24 279.86 800.02   A 1.89 1.83 78.0 0 0 280.73 798.63   Q 281.53 791.35 283.78 772.30   C 285.34 759.02 284.15 744.60 282.28 731.14   Q 281.35 724.49 279.17 717.46   Q 278.18 714.28 280.56 716.44   Q 281.77 717.54 283.34 720.19   Q 296.65 742.56 301.89 767.54   Q 303.35 774.51 305.26 786.68   Q 306.65 795.50 307.25 806.03   Q 307.51 810.71 308.41 806.11   Q 308.97 803.24 310.06 799.59   Q 310.45 798.28 311.11 792.91   Q 311.57 789.20 312.38 783.81   C 313.73 774.82 314.13 764.37 313.50 756.51   Q 313.12 751.84 311.85 741.49   C 310.58 731.06 307.92 721.53 304.47 711.37   A 0.65 0.64 59.1 0 1 304.63 710.70   Q 304.78 710.56 304.96 710.56   Q 305.13 710.56 305.30 710.69   Q 306.88 711.88 307.97 713.78   Q 319.19 733.37 324.33 748.16   Q 329.89 764.19 331.68 773.81   Q 333.77 785.02 334.38 788.29   C 335.78 795.91 336.35 803.23 336.38 810.57   Q 336.38 811.75 336.69 812.38   Q 337.07 813.12 337.26 812.32   C 338.31 808.00 339.39 804.46 339.92 800.46   C 340.76 794.12 342.59 784.07 342.86 775.88   C 343.40 759.50 341.26 742.94 337.75 726.92   C 335.67 717.45 332.44 708.57 328.73 699.98   Q 328.36 699.12 329.29 699.03   Q 330.02 698.95 330.70 699.98   Q 342.71 718.19 350.45 738.53   Q 365.90 779.11 366.12 821.87   A 0.42 0.40 -4.4 0 0 366.60 822.26   Q 366.70 822.24 366.85 822.15   Q 366.92 822.10 366.99 821.82   Q 371.55 802.89 372.87 783.24   Q 373.44 774.85 373.12 769.55   Q 371.51 742.79 365.05 716.72   Q 363.80 711.70 361.51 704.64   Q 357.70 692.87 357.66 692.72   Q 357.53 692.18 358.03 692.23   Q 359.68 692.37 360.61 694.02   Q 370.15 710.81 377.12 726.95   Q 386.29 748.20 390.65 771.09   Q 394.07 789.04 395.10 812.55   C 395.39 819.21 394.51 826.09 394.57 832.97   Q 394.59 834.77 395.62 833.29   Q 396.20 832.45 396.75 830.45   C 403.83 804.73 406.06 778.30 402.69 752.08   Q 399.61 728.06 392.20 702.06   Q 391.39 699.20 391.18 697.86   A 0.70 0.70 0.0 0 1 392.27 697.18   Q 394.00 698.35 394.88 700.17   Q 402.93 716.93 406.98 726.78   Q 420.85 760.53 423.81 796.27   Q 424.52 804.87 425.32 814.75   Q 425.76 820.16 425.13 845.28   C 425.12 846.02 424.54 847.22 424.61 847.69   Q 424.88 849.50 425.69 847.86   C 427.40 844.40 428.69 840.86 429.52 836.74   Q 433.08 819.19 433.63 816.08   Q 436.42 800.00 435.93 775.81   Q 435.50 754.70 431.54 734.05   Q 428.39 717.57 421.60 701.47   A 0.20 0.20 0.0 0 1 421.75 701.20   L 422.16 701.11   A 0.53 0.52 -21.2 0 1 422.71 701.35   C 425.08 705.18 427.56 709.20 429.48 713.09   Q 434.70 723.65 436.06 726.99   Q 451.83 765.66 455.29 804.26   Q 457.70 831.10 454.19 863.17   Q 454.14 863.61 454.51 863.36   Z   M 888.11 175.51   A 0.94 0.94 0.0 0 0 887.18 174.56   L 821.33 173.97   A 0.94 0.94 0.0 0 0 820.38 174.97   L 820.90 183.46   A 0.94 0.94 0.0 0 0 821.83 184.35   L 887.09 184.93   A 0.94 0.94 0.0 0 0 888.04 184.00   L 888.11 175.51   Z   M 1005.97 501.86   Q 1008.32 502.29 1013.00 502.40   Q 1021.22 502.58 1030.05 502.42   A 0.55 0.55 0.0 0 1 1030.60 502.95   L 1031.70 532.89   Q 1031.72 533.34 1032.17 533.33   L 1032.47 533.31   Q 1032.69 533.31 1032.69 533.10   L 1032.96 502.86   A 0.54 0.54 0.0 0 1 1033.50 502.33   L 1060.48 502.33   Q 1060.64 502.33 1060.63 502.17   L 1060.62 501.83   Q 1060.58 500.65 1059.39 500.66   L 1033.46 500.95   A 0.55 0.54 -0.0 0 1 1032.91 500.41   L 1032.63 475.83   A 0.54 0.53 0.0 0 0 1032.09 475.30   L 1031.69 475.30   A 0.73 0.73 0.0 0 0 1030.96 476.02   L 1030.74 499.98   A 1.00 0.99 -90.0 0 1 1029.76 500.97   L 1006.05 501.20   Q 1002.68 501.49 1002.64 499.29   Q 1002.34 479.91 1002.53 461.08   A 0.69 0.69 0.0 0 1 1003.22 460.40   L 1030.15 460.64   Q 1031.16 460.65 1031.15 461.67   L 1031.05 473.21   Q 1031.04 473.91 1031.54 474.41   L 1031.88 474.75   A 0.36 0.36 0.0 0 0 1032.49 474.50   L 1032.61 461.49   A 0.87 0.87 0.0 0 1 1033.47 460.63   L 1060.78 460.33   A 0.34 0.33 0.0 0 1 1061.12 460.66   L 1061.99 538.60   A 0.29 0.28 -1.1 0 1 1061.71 538.88   Q 1048.52 539.03 1035.28 539.09   Q 1032.70 539.11 1032.85 536.20   Q 1032.85 536.17 1032.81 536.17   L 1032.52 536.16   Q 1032.32 536.16 1032.31 536.36   C 1032.17 538.71 1032.80 540.85 1032.78 543.20   Q 1032.51 574.83 1032.11 600.83   A 1.57 1.57 0.0 0 0 1033.66 602.42   Q 1077.45 603.13 1141.76 605.14   Q 1154.18 605.53 1161.74 605.95   Q 1196.42 607.84 1230.95 610.20   A 1.42 1.42 0.0 0 0 1232.46 608.78   Q 1232.44 480.46 1232.25 406.29   Q 1232.24 403.65 1230.95 402.36   Q 1195.19 366.60 1192.82 364.18   Q 1173.88 344.78 1154.59 325.58   C 1148.53 319.55 1141.70 312.09 1136.39 306.86   Q 1093.70 264.89 1075.67 247.20   C 1065.54 237.26 1054.60 225.19 1044.08 214.63   Q 1025.12 195.62 1023.51 193.78   Q 1022.56 192.70 1021.53 192.00   A 1.48 1.46 40.9 0 0 1019.72 192.12   Q 995.85 213.65 977.20 231.20   Q 973.27 234.90 932.57 271.83   Q 906.20 295.77 880.85 320.78   Q 877.95 323.64 873.61 327.68   Q 869.72 331.29 866.35 334.60   Q 842.96 357.61 822.13 377.63   Q 819.54 380.12 819.58 384.51   Q 819.79 411.43 819.87 571.75   Q 819.87 586.74 820.12 598.11   A 1.61 1.61 0.0 0 0 821.73 599.68   L 886.54 599.68   A 1.18 1.18 0.0 0 0 887.72 598.48   Q 887.53 583.54 887.52 580.26   C 887.51 577.35 888.44 574.74 887.94 572.22   Q 887.37 569.35 887.47 566.28   Q 887.67 559.93 887.46 547.93   A 1.21 1.21 0.0 0 0 886.24 546.74   L 853.30 547.11   A 1.06 1.06 0.0 0 0 852.25 548.19   Q 852.62 567.68 851.48 588.09   Q 851.46 588.47 851.09 588.51   L 850.76 588.54   A 0.63 0.63 0.0 0 1 850.06 587.94   Q 849.38 572.46 848.84 556.24   Q 848.70 551.96 848.02 548.21   Q 847.19 543.57 847.03 540.23   Q 846.52 529.54 846.49 527.00   Q 846.05 495.45 846.30 464.80   Q 846.31 462.81 847.22 458.86   Q 848.11 454.95 848.07 449.30   Q 847.85 413.74 848.31 388.95   C 848.46 380.69 848.93 370.69 849.25 361.33   Q 849.29 360.15 850.37 359.70   Q 850.69 359.56 851.16 359.67   A 0.87 0.86 -84.1 0 1 851.83 360.50   L 852.92 459.42   A 1.12 1.12 0.0 0 0 854.05 460.52   L 884.10 460.19   A 0.96 0.95 89.4 0 0 885.04 459.22   Q 884.82 427.17 885.06 362.76   C 885.09 353.28 884.87 345.79 886.08 340.71   A 0.65 0.65 0.0 0 1 886.70 340.22   L 887.34 340.22   Q 887.70 340.21 887.67 340.58   Q 886.88 349.73 887.56 359.16   Q 888.26 368.75 888.34 374.90   Q 888.80 410.27 889.12 449.25   Q 889.16 453.62 889.65 459.05   A 1.23 1.22 -2.3 0 0 890.86 460.16   L 903.88 460.28   A 0.93 0.92 0.3 0 1 904.80 461.20   L 904.80 546.07   A 0.27 0.26 -0.0 0 1 904.53 546.33   L 892.05 546.47   A 1.22 1.22 0.0 0 0 890.85 547.53   Q 890.72 548.44 890.75 550.25   Q 890.92 559.02 890.66 568.49   C 890.60 570.69 889.52 572.98 889.99 575.63   Q 890.59 579.03 890.59 579.95   Q 890.54 589.02 890.33 598.57   A 1.19 1.19 0.0 0 0 891.51 599.78   Q 921.64 599.94 931.33 599.94   C 932.37 599.94 933.27 599.41 934.48 599.63   Q 936.55 600.02 936.71 600.02   Q 955.28 600.58 973.05 600.84   A 1.23 1.23 0.0 0 0 974.30 599.61   Q 974.53 545.52 976.41 480.29   Q 976.75 468.65 977.08 460.99   Q 977.09 460.82 977.21 460.69   L 977.53 460.38   A 0.32 0.32 0.0 0 1 978.08 460.60   Q 978.86 514.87 978.54 532.50   Q 977.93 566.30 977.40 600.27   A 1.10 1.09 -89.5 0 0 978.48 601.38   L 1028.79 601.83   A 0.73 0.72 0.4 0 0 1029.53 601.11   L 1029.53 541.46   Q 1029.53 539.14 1027.20 539.14   L 1003.47 539.14   A 0.85 0.84 -90.0 0 1 1002.63 538.29   Q 1002.65 523.11 1002.64 504.53   Q 1002.64 501.34 1005.97 501.86   Z   M 886.51 197.51   L 820.76 196.92   A 1.21 1.20 -89.5 0 0 819.54 198.13   L 819.54 298.58   Q 819.54 299.73 820.34 298.91   Q 825.76 293.42 828.58 290.83   Q 843.79 276.86 853.47 267.47   Q 876.43 245.22 883.20 239.46   Q 885.58 237.43 887.16 236.37   C 888.57 235.42 888.80 234.37 888.81 232.75   Q 888.89 215.69 888.15 199.10   A 1.66 1.65 88.9 0 0 886.51 197.51   Z   M 1428.44 429.90   C 1430.57 427.19 1432.34 423.53 1433.56 420.58   C 1435.62 415.62 1435.21 409.39 1434.31 404.71   Q 1430.93 387.10 1430.04 381.58   Q 1429.92 380.82 1429.20 381.07   A 0.83 0.80 -89.7 0 0 1428.72 381.56   Q 1426.35 388.05 1425.62 390.32   Q 1421.49 403.11 1423.53 415.76   C 1424.28 420.41 1425.89 424.94 1426.91 429.55   A 0.87 0.87 0.0 0 0 1428.44 429.90   Z   M 1423.26 436.34   C 1420.77 435.08 1421.32 429.75 1421.59 427.43   C 1422.11 422.92 1420.63 415.68 1419.17 412.10   Q 1414.71 401.20 1413.26 394.34   Q 1412.86 392.44 1412.38 394.33   C 1411.15 399.14 1409.15 403.45 1408.55 408.27   Q 1407.36 417.73 1407.33 420.13   C 1407.26 425.51 1410.04 430.80 1413.93 434.78   C 1416.98 437.90 1421.46 441.25 1420.78 444.99   Q 1420.01 449.27 1419.46 450.45   C 1418.01 453.61 1416.24 457.41 1415.56 461.51   Q 1414.12 470.27 1411.49 480.23   Q 1411.06 481.83 1408.66 499.71   Q 1407.46 508.63 1406.01 516.75   Q 1403.06 533.29 1402.99 533.74   Q 1402.74 535.58 1402.84 541.92   Q 1402.84 542.30 1403.15 542.52   Q 1403.36 542.66 1403.53 542.59   A 1.17 1.07 88.2 0 0 1404.20 541.81   Q 1405.59 536.31 1406.72 528.61   C 1407.65 522.30 1410.07 516.89 1410.77 510.44   Q 1411.15 507.00 1411.84 503.58   Q 1414.71 489.34 1416.77 474.96   C 1417.28 471.45 1418.81 467.32 1419.30 464.27   Q 1421.05 453.28 1424.34 442.66   C 1424.85 441.02 1425.07 439.36 1425.28 437.70   Q 1425.35 437.14 1425.12 436.83   Q 1424.84 436.44 1424.19 436.51   Q 1423.70 436.56 1423.26 436.34   Z   M 1432.98 438.25   Q 1441.08 432.62 1445.09 424.10   Q 1449.17 415.43 1452.08 406.87   A 0.46 0.45 -89.2 0 0 1451.52 406.29   Q 1451.21 406.38 1450.81 406.80   Q 1446.52 411.29 1438.20 422.43   Q 1432.95 429.46 1430.85 437.06   A 1.24 1.24 0.0 0 0 1432.69 438.45   Q 1432.82 438.36 1432.98 438.25   Z   M 800.63 599.44   A 1.03 1.03 0.0 0 0 801.62 598.41   L 801.62 409.88   A 1.03 1.03 0.0 0 0 800.44 408.86   L 653.54 430.23   A 1.03 1.03 0.0 0 0 652.66 431.25   L 652.66 603.81   A 1.03 1.03 0.0 0 0 653.73 604.84   L 800.63 599.44   Z   M 1411.16 440.27   C 1409.41 437.23 1405.95 433.37 1403.75 430.19   C 1401.25 426.59 1398.94 420.97 1395.47 416.79   Q 1394.93 416.14 1394.63 416.12   A 0.84 0.81 82.2 0 0 1393.82 417.22   Q 1395.62 422.59 1396.57 428.24   C 1397.58 434.26 1399.34 440.62 1401.32 445.50   Q 1404.74 453.93 1412.87 459.29   A 1.13 1.13 0.0 0 0 1414.45 458.94   C 1417.28 454.39 1413.46 444.30 1411.16 440.27   Z   M 1460.46 429.41   A 0.29 0.29 0.0 0 0 1460.21 428.95   Q 1459.28 429.01 1458.41 429.38   Q 1447.11 434.22 1436.38 442.59   C 1430.31 447.34 1424.85 454.63 1425.57 462.21   A 0.83 0.82 -6.6 0 0 1426.51 462.95   C 1434.90 461.80 1442.05 454.55 1446.61 448.37   Q 1455.72 436.00 1460.46 429.41   Z   M 1390.11 454.23   C 1392.76 464.50 1397.43 471.73 1407.54 475.77   Q 1408.60 476.20 1409.05 475.15   Q 1409.99 472.95 1409.56 470.57   C 1407.03 456.57 1397.61 447.28 1386.69 438.13   A 0.67 0.67 0.0 0 0 1385.59 438.57   Q 1385.52 439.14 1385.68 439.63   Q 1388.90 449.50 1390.11 454.23   Z   M 1452.98 463.76   C 1456.06 459.66 1458.23 456.97 1460.46 453.99   Q 1462.40 451.39 1459.42 452.68   Q 1452.22 455.78 1443.00 459.69   C 1439.71 461.09 1436.69 462.86 1434.02 464.16   C 1427.03 467.58 1419.36 475.91 1420.25 484.03   A 1.33 1.32 -2.9 0 0 1421.57 485.22   Q 1425.39 485.22 1428.55 483.74   Q 1443.07 476.94 1452.98 463.76   Z   M 1402.72 497.98   A 0.59 0.58 -59.7 0 0 1403.54 497.76   Q 1405.60 494.12 1404.73 490.02   Q 1402.30 478.63 1394.24 472.06   Q 1386.41 465.67 1378.18 460.66   Q 1374.45 458.39 1376.70 462.14   C 1379.43 466.69 1380.72 468.71 1382.51 472.73   C 1386.65 482.04 1393.91 492.54 1402.72 497.98   Z   M 1449.15 481.12   Q 1439.54 483.33 1430.16 488.42   C 1422.73 492.46 1414.35 496.96 1414.73 507.03   Q 1414.80 508.72 1415.50 510.04   Q 1415.76 510.53 1416.31 510.54   C 1422.05 510.66 1430.16 506.37 1434.38 503.20   Q 1437.94 500.53 1442.67 493.47   Q 1448.97 484.05 1449.70 482.71   Q 1450.10 481.98 1449.83 481.44   A 0.62 0.61 -19.1 0 0 1449.15 481.12   Z   M 1381.82 491.15   C 1378.85 489.04 1377.02 487.48 1374.11 484.97   A 0.59 0.59 0.0 0 0 1373.14 485.43   Q 1373.19 487.42 1374.11 489.44   Q 1376.68 495.07 1381.05 503.45   Q 1385.57 512.12 1389.25 516.60   Q 1393.33 521.56 1400.49 527.53   A 0.61 0.61 0.0 0 0 1401.48 527.18   C 1402.72 520.46 1400.53 515.62 1397.18 508.42   C 1393.84 501.25 1388.14 495.65 1381.82 491.15   Z   M 1411.50 531.75   A 1.38 1.37 71.3 0 0 1413.13 532.56   C 1419.26 530.87 1424.32 525.17 1427.98 520.29   Q 1433.18 513.37 1439.45 508.10   C 1440.84 506.94 1442.91 505.93 1444.08 505.29   A 0.41 0.32 -42.0 0 0 1444.20 504.65   L 1443.84 504.47   A 1.64 1.60 45.6 0 0 1442.48 504.44   Q 1437.41 506.68 1432.20 508.49   C 1428.80 509.68 1424.75 511.27 1422.15 512.65   C 1415.48 516.18 1408.34 523.83 1411.50 531.75   Z   M 447.30 535.21   Q 447.31 535.98 447.53 536.40   A 0.79 0.79 0.0 0 0 448.96 536.34   Q 450.50 532.61 451.24 528.25   Q 452.32 521.91 453.82 514.63   Q 454.87 509.54 451.83 513.73   Q 450.08 516.14 448.08 521.34   Q 445.74 527.44 447.18 533.92   Q 447.29 534.43 447.30 535.21   Z   M 1372.98 524.23   C 1378.60 534.99 1386.82 542.93 1397.60 547.98   A 1.72 1.61 40.9 0 0 1399.19 547.92   Q 1399.78 547.56 1399.65 546.23   Q 1398.26 532.18 1387.23 524.24   Q 1378.57 518.00 1368.96 513.26   Q 1368.03 512.80 1367.66 513.70   A 0.88 0.85 -49.1 0 0 1367.70 514.43   Q 1371.07 520.57 1372.98 524.23   Z   M 1446.42 520.63   Q 1447.31 519.37 1447.36 519.24   Q 1448.35 516.60 1445.95 518.06   Q 1433.49 525.66 1421.15 532.77   Q 1416.00 535.75 1414.13 537.61   C 1411.84 539.91 1408.32 544.79 1409.72 548.11   Q 1409.91 548.56 1410.35 548.76   C 1417.91 552.26 1429.16 542.68 1433.79 537.54   Q 1437.02 533.96 1446.42 520.63   Z   M 442.33 546.83   C 443.21 544.92 444.49 542.67 443.70 540.86   Q 442.63 538.40 439.65 531.73   C 438.56 529.29 437.05 527.08 435.18 525.39   Q 433.76 524.11 433.59 526.01   Q 432.47 538.72 440.58 547.13   A 1.08 1.08 0.0 0 0 442.33 546.83   Z   M 452.27 556.82   C 455.69 554.12 459.25 551.91 461.54 547.92   Q 463.61 544.30 465.89 539.13   A 1.45 1.45 0.0 0 0 465.17 537.23   C 462.43 535.95 456.53 538.69 454.66 540.19   C 452.56 541.88 449.35 546.47 448.77 548.89   Q 447.87 552.64 450.26 556.55   Q 451.03 557.81 452.27 556.82   Z   M 439.27 568.86   C 439.87 569.44 440.95 571.01 441.99 571.57   A 0.41 0.41 0.0 0 0 442.57 571.34   Q 444.79 565.03 442.30 560.13   Q 438.25 552.15 429.43 548.53   A 0.86 0.85 4.6 0 0 428.27 549.51   Q 430.84 560.58 439.27 568.86   Z   M 452.50 573.01   Q 465.27 563.41 473.04 550.98   Q 474.59 548.48 471.89 549.64   C 464.08 553.00 455.25 557.96 450.35 565.14   Q 447.80 568.89 448.52 573.39   A 1.21 1.20 73.8 0 0 450.18 574.31   Q 451.55 573.72 452.50 573.01   Z   M 436.81 575.88   C 432.62 569.97 425.38 564.32 419.34 560.17   Q 418.87 559.85 418.47 559.75   A 0.76 0.76 0.0 0 0 417.56 560.73   C 421.62 573.13 427.91 584.07 438.96 591.62   Q 440.66 592.78 441.22 590.92   A 1.75 1.62 54.1 0 0 441.27 590.51   Q 441.30 582.20 436.81 575.88   Z   M 469.21 569.13   C 464.82 571.82 456.85 572.79 452.37 577.86   C 450.18 580.35 447.44 583.30 447.07 586.74   Q 446.73 589.94 446.90 592.29   A 1.02 1.01 73.7 0 0 448.39 593.11   C 454.37 589.90 457.00 586.10 462.12 579.13   Q 464.91 575.34 471.32 569.25   A 0.78 0.77 -20.3 0 0 471.56 568.74   L 471.62 568.02   A 0.21 0.21 0.0 0 0 471.30 567.82   Q 470.32 568.46 469.21 569.13   Z   M 1174.9684 922.4905   A 1.46 1.14 -16.7 0 0 1173.2424 921.8181   A 1.46 1.14 -16.7 0 0 1172.1716 923.3295   A 1.46 1.14 -16.7 0 0 1173.8976 924.0019   A 1.46 1.14 -16.7 0 0 1174.9684 922.4905   Z   M 1202.6407 985.5119   A 5.56 1.13 86.9 0 0 1203.4683 979.8989   A 5.56 1.13 86.9 0 0 1202.0393 974.4081   A 5.56 1.13 86.9 0 0 1201.2117 980.0211   A 5.56 1.13 86.9 0 0 1202.6407 985.5119   Z   M 1205.5673 1017.2708   A 2.98 0.72 83.5 0 0 1205.9454 1014.2285   A 2.98 0.72 83.5 0 0 1204.8927 1011.3492   A 2.98 0.72 83.5 0 0 1204.5146 1014.3915   A 2.98 0.72 83.5 0 0 1205.5673 1017.2708   Z"
       id="path4"
       style="fill:#ffffff;fill-opacity:1" />
    <path
       fill="#000000"
       d="   M 536.10 600.42   A 0.10 0.10 0.0 0 1 536.09 600.56   L 536.05 600.59   A 9.43 1.20 50.7 0 1 529.15 594.05   L 528.95 593.80   A 9.43 1.20 50.7 0 1 523.91 585.74   L 523.94 585.72   A 0.10 0.10 0.0 0 1 524.08 585.73   L 536.10 600.42   Z"
       id="path5"
       style="fill:#ffffff;fill-opacity:1" />
    <ellipse
       fill="#000000"
       cx="0.00"
       cy="0.00"
       transform="translate(577.88,593.55) rotate(110.1)"
       rx="1.42"
       ry="0.28"
       id="ellipse5"
       style="fill:#ffffff;fill-opacity:1" />
    <path
       fill="#000000"
       d="   M 1124.75 808.04   C 1122.39 804.81 1118.74 800.32 1115.64 796.95   Q 1101.97 782.09 1086.25 769.34   Q 1082.06 765.94 1070.95 757.97   C 1047.17 740.92 1021.42 726.30 994.76 713.35   C 979.67 706.02 963.78 697.87 947.55 691.29   Q 916.77 678.81 880.52 666.46   Q 856.08 658.14 845.13 655.53   Q 832.93 652.62 815.45 647.91   Q 814.23 647.58 814.11 646.32   L 814.08 646.07   A 1.02 1.02 0.0 0 1 815.19 644.95   Q 825.20 645.95 846.94 648.71   Q 855.92 649.85 866.62 652.11   Q 898.66 658.88 928.81 668.21   Q 956.63 676.81 971.07 682.31   Q 999.50 693.14 1007.59 696.30   Q 1057.90 715.97 1105.92 747.19   C 1120.38 756.60 1133.25 766.94 1144.75 778.48   Q 1153.49 787.24 1157.50 796.96   C 1163.01 810.29 1160.34 826.79 1154.02 840.28   Q 1151.91 844.80 1149.74 847.19   Q 1148.61 848.44 1147.88 846.92   Q 1138.04 826.19 1124.75 808.04   Z"
       id="path6"
       style="fill:#ffffff;fill-opacity:1" />
    <path
       fill="#000000"
       d="   M 1305.56 733.84   C 1315.20 740.51 1325.24 748.57 1330.38 758.97   Q 1333.08 764.44 1334.69 773.49   C 1336.67 784.69 1337.54 796.57 1334.51 807.64   A 0.88 0.87 -65.5 0 1 1333.18 808.14   Q 1331.35 806.91 1329.45 804.98   Q 1328.90 804.41 1315.94 789.81   Q 1297.68 769.21 1277.48 753.64   Q 1267.64 746.05 1249.33 735.03   Q 1235.20 726.53 1211.85 715.15   Q 1208.04 713.29 1179.91 701.39   C 1162.55 694.04 1147.37 688.69 1126.90 680.89   Q 1100.00 670.63 1086.63 666.54   Q 1061.31 658.77 1052.07 656.32   Q 1044.70 654.36 1026.20 650.39   Q 1024.75 650.08 1022.31 649.15   Q 1021.50 648.85 1021.25 648.37   Q 1020.99 647.88 1021.17 647.36   Q 1021.35 646.84 1021.90 646.89   C 1037.68 648.36 1047.05 649.00 1059.19 650.95   C 1101.54 657.77 1142.31 663.41 1182.77 676.81   Q 1222.99 690.13 1263.95 709.64   Q 1285.28 719.80 1305.56 733.84   Z"
       id="path7"
       style="fill:#ffffff;fill-opacity:1" />
    <path
       fill="#000000"
       d="   M 1242.21 792.63   Q 1241.17 792.73 1241.46 794.27   Q 1242.36 799.05 1242.02 803.25   Q 1241.29 812.23 1240.29 821.26   Q 1239.60 827.54 1237.21 832.16   A 1.11 1.11 0.0 0 1 1235.27 832.22   Q 1227.70 819.52 1223.00 812.32   Q 1206.50 787.08 1184.60 768.68   C 1167.99 754.73 1150.75 742.14 1131.31 731.23   Q 1126.45 728.50 1111.97 720.83   C 1074.31 700.89 1034.80 685.13 994.50 671.30   Q 957.83 658.71 917.36 650.61   Q 916.01 650.34 913.31 649.27   A 0.96 0.95 -79.1 0 1 912.70 648.36   Q 912.71 646.94 914.58 647.13   C 935.45 649.20 954.16 652.45 974.01 655.02   Q 987.98 656.83 1013.45 662.32   Q 1043.03 668.70 1081.98 682.27   Q 1091.52 685.60 1117.25 695.50   C 1128.89 699.98 1137.92 704.08 1148.52 708.64   C 1167.41 716.77 1185.36 726.79 1203.82 738.25   Q 1229.72 754.33 1249.85 777.73   C 1260.30 789.86 1269.00 804.62 1272.50 820.09   Q 1272.76 821.22 1272.23 822.42   A 1.06 1.05 -52.9 0 1 1270.45 822.67   Q 1269.72 821.78 1262.77 813.08   Q 1253.67 801.69 1242.89 792.84   A 0.93 0.90 61.3 0 0 1242.21 792.63   Z"
       id="path8"
       style="fill:#ffffff;fill-opacity:1" />
    <path
       fill="#000000"
       d="   M 1003.10 791.41   C 987.31 773.13 965.55 755.23 944.49 741.10   Q 921.99 726.00 898.80 713.92   Q 891.04 709.88 869.71 699.27   C 858.74 693.82 849.66 689.99 839.47 685.69   Q 794.88 666.87 746.19 655.63   C 743.71 655.06 739.07 653.68 740.14 651.01   Q 740.44 650.24 741.26 650.36   Q 751.87 651.89 775.96 655.64   Q 796.01 658.76 813.30 663.43   Q 815.18 663.94 837.04 670.27   Q 848.13 673.48 856.05 676.47   Q 892.11 690.06 907.92 696.92   Q 923.43 703.65 946.05 715.55   Q 986.94 737.06 1022.55 765.23   Q 1026.93 768.70 1038.61 779.94   C 1046.65 787.67 1049.49 795.72 1053.11 807.49   Q 1064.03 842.93 1061.79 880.26   C 1061.60 883.35 1061.09 892.54 1058.95 894.09   A 1.59 1.58 -27.6 0 1 1056.53 893.34   C 1048.80 871.41 1040.88 849.47 1029.81 829.28   Q 1019.42 810.30 1003.10 791.41   Z"
       id="path9"
       style="fill:#ffffff;fill-opacity:1" />
    <path
       fill="#000000"
       d="   M 928.18 787.14   C 914.32 773.09 900.21 761.92 881.63 749.77   Q 854.56 732.07 826.28 718.07   Q 808.34 709.19 779.58 696.36   Q 772.29 693.11 763.14 689.63   Q 748.95 684.25 746.54 683.31   Q 719.10 672.57 684.47 663.54   Q 667.69 659.16 651.49 655.32   A 1.77 1.76 -84.4 0 1 650.14 653.67   L 650.12 653.15   A 1.07 1.06 -88.8 0 1 651.26 652.05   Q 666.03 653.10 674.64 653.94   C 704.20 656.85 730.72 663.51 764.18 673.86   Q 773.27 676.67 783.16 680.33   C 833.59 699.02 883.26 724.17 926.85 755.66   C 934.50 761.19 944.53 769.19 950.88 774.86   C 977.66 798.80 988.86 836.51 983.58 871.55   Q 983.28 873.55 982.07 876.99   Q 981.35 879.05 980.44 877.13   Q 980.43 877.10 971.96 855.08   Q 957.10 816.44 928.18 787.14   Z"
       id="path10"
       style="fill:#ffffff;fill-opacity:1" />
    <path
       fill="#000000"
       d="   M 1373.32 758.17   Q 1373.30 758.15 1363.12 748.84   C 1349.62 736.48 1335.27 724.63 1319.64 714.85   Q 1298.02 701.32 1284.87 695.30   Q 1265.01 686.21 1239.26 676.66   C 1213.39 667.07 1186.53 660.38 1160.28 655.77   Q 1159.19 655.58 1158.63 655.13   Q 1157.93 654.56 1158.12 653.88   Q 1158.28 653.36 1158.82 653.36   Q 1167.06 653.34 1175.08 653.93   C 1205.37 656.16 1236.60 660.42 1267.19 668.31   Q 1290.02 674.18 1308.50 682.88   Q 1311.78 684.43 1321.82 691.03   Q 1330.30 696.60 1334.23 699.90   C 1345.98 709.78 1356.06 722.36 1364.29 734.86   Q 1376.44 753.35 1378.19 756.40   Q 1379.90 759.36 1380.69 761.33   A 0.51 0.50 89.4 0 1 1380.05 761.99   Q 1377.02 760.88 1373.32 758.17   Z"
       id="path11"
       style="fill:#ffffff;fill-opacity:1" />
    <path
       fill="#000000"
       d="   M 896.11 817.47   C 870.83 791.71 841.55 769.62 810.20 751.85   Q 772.54 730.49 733.97 714.32   Q 714.26 706.06 712.10 705.20   Q 694.44 698.18 679.26 693.01   Q 665.31 688.25 660.35 686.48   C 632.04 676.36 600.39 668.37 571.11 661.58   C 568.28 660.92 563.68 659.53 560.25 658.68   A 1.49 1.48 24.3 0 1 559.38 656.39   Q 560.25 655.15 562.86 655.52   C 575.88 657.34 593.11 658.07 607.49 660.30   Q 639.15 665.21 662.40 671.75   Q 709.37 684.98 753.91 702.89   Q 771.85 710.10 784.80 716.46   Q 826.19 736.80 849.92 752.20   C 875.13 768.55 898.34 787.42 917.04 810.41   C 928.00 823.89 934.19 842.38 932.52 860.44   A 0.50 0.50 0.0 0 1 931.69 860.77   C 929.14 858.52 927.74 855.94 923.90 850.51   Q 921.02 846.43 917.83 842.70   C 910.64 834.24 903.22 824.72 896.11 817.47   Z"
       id="path12"
       style="fill:#ffffff;fill-opacity:1" />
    <path
       fill="#000000"
       d="   M 859.40 832.45   Q 847.43 822.24 830.40 810.15   Q 789.17 780.88 744.22 757.84   Q 716.11 743.43 703.17 737.38   C 687.52 730.06 672.50 722.55 657.22 716.04   C 625.12 702.36 603.80 693.32 576.43 685.85   C 563.50 682.33 552.87 679.10 539.76 676.16   Q 534.66 675.02 505.79 668.77   Q 504.53 668.49 504.49 667.20   L 504.47 666.76   A 2.16 1.76 2.7 0 1 506.85 665.00   Q 524.83 666.81 528.57 667.18   Q 541.91 668.49 548.43 669.43   Q 565.16 671.85 583.39 675.87   C 595.20 678.48 603.76 681.06 617.76 684.94   Q 626.69 687.42 632.67 689.32   Q 666.37 700.01 698.05 712.66   Q 705.83 715.76 716.41 720.57   C 733.11 728.15 744.05 732.85 756.90 739.54   Q 790.47 757.00 822.82 777.93   Q 852.53 797.14 880.21 822.19   Q 896.36 836.79 910.18 855.53   C 920.78 869.89 928.94 887.78 927.89 906.54   A 0.17 0.17 0.0 0 1 927.61 906.65   Q 925.04 904.25 922.97 901.33   C 912.34 886.38 902.07 873.35 889.87 860.99   Q 874.03 844.93 859.40 832.45   Z"
       id="path13"
       style="fill:#ffffff;fill-opacity:1" />
    <path
       fill="#000000"
       d="   M 885.87 988.19   Q 886.03 988.40 886.23 988.23   L 886.62 987.88   Q 886.73 987.78 886.66 987.66   Q 878.14 973.59 873.76 963.86   Q 868.08 951.25 868.95 936.55   A 0.75 0.75 0.0 0 1 870.20 936.04   Q 877.32 942.41 880.76 951.10   A 0.69 0.69 0.0 0 0 881.86 951.36   L 882.10 951.15   A 0.29 0.27 -29.0 0 0 882.19 950.86   Q 877.52 932.37 875.60 919.82   Q 875.12 916.67 877.30 916.61   A 1.28 1.28 0.0 0 1 878.28 917.04   L 888.69 928.82   A 0.63 0.62 46.2 0 0 889.61 928.84   Q 890.30 928.11 889.91 926.85   C 887.93 920.34 882.73 911.61 880.11 908.34   C 862.19 885.90 841.79 866.93 818.49 848.83   Q 763.63 806.21 703.30 772.30   Q 676.59 757.28 649.38 743.67   Q 636.61 737.28 624.38 732.17   Q 595.32 720.04 562.65 709.25   Q 552.73 705.98 543.72 702.80   Q 513.45 692.10 482.46 685.53   Q 476.66 684.30 462.79 681.84   Q 453.25 680.14 434.26 676.49   Q 432.41 676.13 431.86 675.85   Q 429.37 674.58 432.11 674.06   Q 435.64 673.40 439.50 673.55   Q 476.47 675.03 511.72 682.32   Q 527.90 685.67 549.55 690.95   C 572.64 696.57 593.09 703.69 614.91 711.63   Q 619.60 713.34 633.41 719.24   C 658.04 729.76 684.73 741.57 708.21 753.95   Q 717.46 758.82 744.78 774.14   Q 790.15 799.58 829.88 830.12   C 852.24 847.32 875.05 868.22 892.47 891.49   Q 902.61 905.02 909.23 921.57   C 909.93 923.34 909.32 924.77 907.65 925.91   Q 903.33 928.86 901.14 933.67   Q 897.76 941.07 891.47 954.08   A 0.33 0.33 0.0 0 0 891.83 954.55   L 892.26 954.46   A 0.51 0.50 -81.7 0 0 892.59 954.21   Q 898.31 942.89 906.41 934.91   Q 908.00 933.35 910.04 932.79   A 1.03 1.02 82.7 0 1 911.33 933.79   Q 911.10 950.14 905.59 964.40   Q 902.54 972.30 896.71 983.49   Q 894.83 987.10 892.41 989.30   A 0.89 0.88 48.3 0 0 892.35 990.54   L 892.69 990.92   Q 892.71 990.95 892.74 990.92   Q 897.75 985.32 901.80 979.40   C 906.64 972.33 910.48 968.45 917.51 965.59   A 0.40 0.40 0.0 0 1 918.07 965.93   Q 918.29 968.99 917.73 972.24   Q 915.93 982.62 913.04 992.74   Q 912.22 995.61 905.71 1009.07   C 902.55 1015.62 899.74 1022.95 896.61 1029.52   Q 896.40 1029.96 896.50 1030.44   L 896.73 1031.55   Q 896.84 1032.09 897.09 1031.60   Q 904.01 1018.07 909.29 1010.26   Q 913.86 1003.51 921.26 1000.64   Q 921.87 1000.40 921.84 1001.05   Q 921.14 1015.55 916.94 1030.13   Q 915.58 1034.87 911.72 1043.43   Q 907.74 1052.25 905.16 1061.06   Q 905.03 1061.51 905.48 1061.63   Q 905.87 1061.74 906.11 1061.32   Q 910.96 1052.98 915.02 1047.29   Q 919.66 1040.81 926.98 1038.16   A 0.75 0.74 -7.4 0 1 927.98 1038.92   Q 927.56 1043.97 926.32 1050.67   C 924.27 1061.80 923.06 1068.74 919.21 1077.47   Q 915.00 1087.04 914.99 1087.07   Q 910.98 1097.88 909.97 1109.26   Q 909.76 1111.59 910.13 1113.54   Q 910.53 1115.67 911.40 1113.58   Q 911.78 1112.69 912.48 1109.59   Q 914.31 1101.46 916.44 1093.94   C 917.95 1088.61 923.45 1075.00 928.98 1073.60   A 1.16 1.16 0.0 0 1 930.42 1074.75   Q 930.34 1079.20 930.79 1093.86   C 931.07 1103.18 930.16 1114.78 926.87 1124.71   C 925.58 1128.61 922.46 1130.20 922.24 1134.83   Q 920.62 1168.94 911.50 1202.51   Q 911.08 1204.08 909.81 1205.16   A 0.83 0.83 0.0 0 1 908.44 1204.49   Q 908.55 1202.47 909.16 1196.77   Q 910.97 1180.15 911.48 1154.00   Q 911.83 1135.81 910.57 1128.74   C 909.30 1121.54 909.04 1117.57 906.72 1112.33   Q 903.58 1105.27 900.32 1094.74   C 899.08 1090.75 896.72 1087.45 893.61 1083.53   Q 883.60 1070.89 880.06 1054.83   A 1.24 1.23 -5.7 0 1 881.29 1053.33   C 887.86 1053.45 896.30 1061.65 901.41 1064.94   A 0.59 0.58 10.0 0 0 902.30 1064.32   Q 902.03 1063.07 901.17 1062.11   Q 893.29 1053.30 892.29 1052.34   Q 886.35 1046.72 883.31 1042.72   Q 873.45 1029.73 870.07 1014.23   Q 869.62 1012.16 870.62 1011.39   C 874.36 1008.50 883.85 1017.43 886.13 1019.76   Q 892.05 1025.80 886.89 1018.60   Q 881.98 1011.74 876.05 1001.61   C 873.05 996.50 870.00 989.57 868.86 983.52   Q 867.50 976.27 866.91 972.79   A 1.46 1.41 -44.0 0 1 866.93 972.21   Q 867.35 970.43 869.28 971.42   Q 872.57 973.11 875.02 975.64   Q 880.22 981.03 885.87 988.19   Z"
       id="path14"
       style="fill:#ffffff;fill-opacity:1" />
    <path
       fill="#000000"
       d="   M 753.56 1076.08   Q 753.77 1076.45 754.08 1076.14   L 754.31 1075.91   Q 754.39 1075.83 754.35 1075.71   Q 752.03 1069.69 751.13 1067.92   C 744.74 1055.31 739.57 1043.42 737.69 1029.46   A 0.73 0.73 0.0 0 1 738.58 1028.65   C 743.57 1029.82 750.03 1036.63 753.05 1040.60   A 0.41 0.41 0.0 0 0 753.73 1040.56   L 753.90 1040.26   Q 753.98 1040.12 753.90 1039.98   Q 749.95 1032.57 745.42 1025.48   C 740.68 1018.07 735.97 1009.57 737.40 1000.51   A 0.49 0.49 0.0 0 1 738.22 1000.24   L 747.13 1009.16   A 0.28 0.27 21.6 0 0 747.60 1008.96   L 747.58 1008.41   Q 747.57 1008.11 747.41 1007.86   C 741.32 998.13 737.07 989.85 736.66 977.85   Q 736.62 976.67 737.79 976.79   Q 738.82 976.89 741.66 979.87   C 743.98 982.29 746.25 984.47 748.26 987.25   Q 749.92 989.53 749.68 986.92   Q 749.60 986.09 748.70 984.90   Q 741.13 974.95 739.49 962.99   A 0.57 0.56 85.4 0 1 740.03 962.35   L 743.88 962.20   A 0.80 0.80 0.0 0 0 744.62 961.16   Q 742.31 953.73 742.45 946.32   Q 742.48 944.46 743.71 945.86   L 750.19 953.19   A 0.54 0.54 0.0 0 0 751.04 953.13   Q 751.32 952.70 751.33 952.02   Q 751.43 945.61 750.58 942.19   C 749.72 938.75 745.18 937.86 741.37 937.33   Q 735.07 936.44 731.13 936.30   A 1.04 1.04 0.0 0 1 730.18 935.57   C 723.11 912.97 713.82 892.54 699.42 873.21   Q 682.19 850.08 658.57 828.24   Q 633.45 805.01 599.42 779.63   Q 591.72 773.89 582.81 767.95   Q 526.51 730.43 464.69 702.67   Q 460.12 700.62 455.87 698.20   Q 453.12 696.63 456.29 696.57   Q 459.74 696.51 463.78 697.78   C 478.69 702.44 491.40 707.41 506.81 713.87   C 523.93 721.05 536.87 728.39 556.48 738.50   Q 565.84 743.33 574.00 748.20   Q 601.81 764.79 629.52 783.82   C 655.84 801.90 680.28 821.69 702.72 845.01   C 727.26 870.51 745.24 901.55 753.90 935.40   C 754.95 939.51 755.47 942.95 755.36 947.57   Q 755.24 952.83 755.25 953.64   Q 755.29 956.93 757.12 954.19   L 759.74 950.26   A 1.51 1.51 0.0 0 1 762.30 950.33   Q 764.21 953.60 764.12 956.15   Q 763.67 969.36 760.71 978.02   Q 758.89 983.36 754.63 990.44   Q 754.38 990.84 754.72 991.17   L 755.01 991.47   Q 755.16 991.62 755.30 991.45   C 760.58 984.84 765.22 977.28 772.96 973.09   A 1.00 0.99 -13.4 0 1 774.43 973.99   Q 774.37 976.21 773.91 978.15   Q 769.89 995.06 768.72 998.44   Q 767.65 1001.50 763.32 1008.65   C 760.61 1013.12 756.94 1018.47 756.29 1023.15   A 0.82 0.81 -20.4 0 0 757.71 1023.80   Q 757.95 1023.52 758.22 1022.99   C 761.28 1016.91 767.29 1006.58 773.26 1005.73   Q 774.54 1005.54 774.48 1006.84   Q 773.85 1019.18 771.71 1028.23   C 770.69 1032.51 768.45 1036.77 765.77 1040.87   C 763.06 1045.01 760.81 1048.75 760.44 1052.26   Q 759.96 1056.74 762.02 1052.63   Q 766.57 1043.57 774.92 1036.61   Q 775.32 1036.28 775.83 1036.34   Q 777.57 1036.55 777.59 1038.53   C 777.69 1048.15 775.62 1059.50 769.38 1067.14   Q 763.17 1074.74 759.19 1081.20   Q 758.15 1082.89 757.54 1085.46   Q 757.44 1085.85 757.56 1086.04   Q 757.65 1086.19 757.82 1086.25   Q 758.16 1086.37 758.36 1086.07   Q 761.62 1081.30 765.24 1076.97   Q 765.34 1076.86 768.66 1072.47   Q 771.38 1068.88 775.81 1066.46   A 0.79 0.79 0.0 0 1 776.97 1067.21   Q 776.57 1073.06 774.31 1082.53   Q 771.50 1094.35 761.49 1099.99   Q 759.68 1101.01 758.64 1104.33   Q 750.40 1130.66 739.87 1151.15   Q 739.09 1152.65 737.81 1153.77   Q 737.26 1154.26 736.74 1154.13   A 0.54 0.54 0.0 0 1 736.36 1153.43   Q 743.31 1133.41 748.14 1116.25   Q 750.25 1108.73 751.54 1100.80   C 751.80 1099.16 751.45 1098.07 750.44 1096.64   Q 740.89 1083.02 738.16 1066.16   Q 737.57 1062.53 737.78 1061.01   A 1.17 1.16 -76.1 0 1 739.33 1060.07   Q 742.29 1061.14 744.40 1063.53   Q 749.67 1069.52 753.56 1076.08   Z"
       id="path15"
       style="fill:#ffffff;fill-opacity:1" />
    <path
       fill="#000000"
       d="   M 787.82 890.21   Q 783.01 884.19 774.22 874.71   Q 767.34 867.28 760.25 860.77   C 739.97 842.12 717.87 824.04 695.83 808.10   C 678.46 795.54 660.92 782.49 643.57 771.56   Q 630.44 763.29 610.92 751.81   C 591.25 740.24 572.00 730.64 548.35 718.78   Q 543.20 716.19 539.76 712.86   A 0.75 0.74 66.5 0 1 540.26 711.58   Q 540.99 711.57 542.24 711.86   Q 546.99 712.96 557.25 716.85   Q 586.57 727.97 601.05 734.69   Q 604.10 736.10 626.21 747.11   Q 635.81 751.88 643.96 756.36   Q 678.44 775.29 695.38 785.96   Q 724.36 804.21 752.52 824.86   Q 773.94 840.57 792.10 858.04   Q 815.60 880.66 831.26 907.33   C 836.72 916.63 840.39 926.06 844.64 936.08   A 0.53 0.53 0.0 0 1 844.08 936.81   C 836.37 935.70 826.75 936.86 820.22 941.60   A 0.53 0.53 0.0 0 1 819.45 941.43   Q 816.96 936.93 808.74 921.65   Q 800.13 905.63 787.82 890.21   Z"
       id="path16"
       style="fill:#ffffff;fill-opacity:1" />
    <path
       fill="#000000"
       d="   M 1138.44 1014.47   A 0.38 0.38 0.0 0 0 1139.02 1014.37   L 1139.25 1013.98   Q 1139.32 1013.85 1139.23 1013.73   Q 1121.92 992.70 1116.54 986.72   Q 1108.48 977.75 1103.93 966.59   Q 1103.47 965.47 1103.41 964.69   A 1.11 1.11 0.0 0 1 1104.73 963.52   C 1112.62 965.05 1122.05 969.07 1127.07 975.54   Q 1128.30 977.12 1128.09 975.24   Q 1128.03 974.73 1127.28 973.72   Q 1124.69 970.20 1118.64 963.77   Q 1109.70 954.29 1102.85 941.05   Q 1099.96 935.45 1098.43 929.40   A 1.24 1.24 0.0 0 1 1099.23 927.92   C 1102.46 926.80 1109.81 931.27 1111.36 932.70   Q 1114.12 935.27 1115.34 935.88   A 0.18 0.18 0.0 0 0 1115.58 935.62   Q 1114.85 934.42 1112.62 931.70   C 1103.78 920.90 1098.37 907.25 1094.02 894.90   A 0.33 0.33 0.0 0 1 1094.44 894.48   Q 1101.28 896.95 1106.36 902.40   Q 1108.56 904.77 1109.59 905.76   Q 1112.58 908.62 1111.00 904.80   C 1106.48 893.89 1103.95 881.81 1104.85 869.67   Q 1104.89 869.09 1105.46 869.22   Q 1107.09 869.58 1108.62 871.34   Q 1117.65 881.78 1122.50 893.98   Q 1123.08 895.43 1123.10 897.61   Q 1123.10 897.97 1123.38 898.19   Q 1123.51 898.29 1123.65 898.33   Q 1123.79 898.37 1123.82 898.22   Q 1124.26 896.17 1125.73 895.10   A 1.57 1.56 65.8 0 1 1128.17 896.03   Q 1134.27 923.43 1128.87 951.12   A 0.58 0.58 0.0 0 0 1129.52 951.80   L 1129.78 951.76   A 0.36 0.36 0.0 0 0 1130.07 951.52   Q 1131.64 947.02 1133.02 942.51   C 1133.95 939.45 1135.55 936.47 1136.89 933.99   A 0.44 0.44 0.0 0 1 1137.70 934.06   C 1140.00 940.83 1140.46 948.92 1140.65 955.56   Q 1140.79 960.74 1140.10 967.10   Q 1139.07 976.62 1137.46 987.96   Q 1137.43 988.18 1137.62 988.29   L 1137.85 988.42   Q 1138.32 988.69 1138.49 988.18   Q 1141.75 977.91 1146.41 968.32   A 0.49 0.48 -51.1 0 1 1147.23 968.23   C 1148.69 970.11 1149.58 972.09 1149.95 974.59   Q 1151.96 988.10 1150.59 998.78   Q 1147.88 1019.98 1147.00 1027.25   Q 1146.21 1033.72 1146.37 1036.53   Q 1146.40 1037.08 1146.76 1037.43   Q 1147.16 1037.80 1147.33 1037.10   C 1147.65 1035.82 1147.68 1033.57 1148.17 1031.76   Q 1150.27 1024.09 1152.01 1016.99   Q 1153.83 1009.56 1158.62 1002.97   Q 1159.42 1001.87 1159.60 1003.22   C 1161.98 1021.89 1160.65 1036.81 1160.11 1061.03   Q 1159.88 1071.19 1159.42 1081.02   Q 1158.60 1098.38 1157.50 1128.97   A 2.53 2.26 75.0 0 1 1156.55 1130.86   Q 1156.41 1130.96 1156.22 1130.95   Q 1155.37 1130.92 1155.32 1130.56   Q 1154.94 1127.86 1154.32 1120.24   Q 1150.50 1073.94 1149.55 1063.50   C 1148.84 1055.68 1143.88 1049.01 1139.15 1041.81   C 1136.32 1037.50 1132.27 1032.79 1129.25 1029.02   C 1124.32 1022.87 1121.39 1017.43 1117.67 1010.03   Q 1114.66 1004.04 1113.75 999.22   Q 1113.65 998.71 1114.17 998.72   Q 1114.75 998.74 1115.16 998.93   Q 1126.94 1004.37 1138.44 1014.47   Z"
       id="path17"
       style="fill:#ffffff;fill-opacity:1" />
    <path
       fill="#000000"
       d="   M 970.43 914.60   Q 971.71 917.40 971.68 914.32   C 971.62 906.58 973.57 898.46 974.55 892.02   C 974.98 889.15 974.48 886.32 974.12 883.00   Q 974.06 882.48 974.40 882.21   A 0.44 0.44 0.0 0 1 975.02 882.29   C 979.21 887.78 981.48 890.30 982.81 897.22   Q 986.11 914.47 979.41 929.93   A 1.03 1.03 0.0 0 0 979.58 931.02   L 979.93 931.41   A 0.13 0.12 -49.9 0 0 980.13 931.39   Q 984.94 922.95 987.29 919.30   Q 989.67 915.59 993.03 913.27   A 0.65 0.64 -20.7 0 1 994.04 913.72   Q 996.74 936.30 987.68 956.94   C 984.88 963.30 982.80 967.19 981.69 972.20   Q 981.18 974.49 980.39 976.68   Q 980.13 977.40 980.64 977.98   L 980.95 978.33   A 0.04 0.04 0.0 0 0 981.01 978.32   C 981.73 976.15 982.57 973.15 983.82 970.78   Q 986.66 965.37 991.05 958.49   C 994.24 953.51 998.05 950.30 1002.78 947.29   A 0.44 0.44 0.0 0 1 1003.46 947.66   C 1003.69 960.89 1000.83 973.89 995.44 986.30   C 992.02 994.18 986.07 1003.70 983.99 1013.65   Q 983.95 1013.85 984.12 1013.96   L 984.41 1014.12   Q 984.94 1014.43 985.16 1013.85   C 989.37 1002.41 997.03 991.38 1006.89 984.36   A 0.61 0.61 0.0 0 1 1007.86 984.85   Q 1007.88 1004.37 1000.22 1022.56   Q 996.09 1032.34 991.19 1044.98   Q 989.64 1048.95 990.16 1052.57   Q 990.49 1054.84 991.23 1052.66   Q 996.05 1038.39 1004.25 1024.78   Q 1007.68 1019.09 1013.65 1016.05   A 0.96 0.96 0.0 0 1 1015.01 1017.16   C 1014.35 1019.57 1014.01 1020.67 1013.78 1022.65   Q 1011.62 1040.65 1010.57 1044.52   Q 1006.29 1060.36 1002.29 1076.27   Q 1001.70 1078.62 1001.32 1081.02   C 1001.17 1081.99 1000.15 1083.65 1000.71 1085.05   Q 1000.92 1085.56 1001.13 1085.05   Q 1003.96 1078.25 1007.95 1068.46   C 1010.20 1062.93 1014.88 1054.80 1020.60 1052.29   A 0.51 0.50 72.6 0 1 1021.30 1052.66   Q 1022.63 1059.71 1022.32 1066.08   Q 1021.79 1077.04 1018.53 1094.04   Q 1016.49 1104.66 1013.27 1113.00   Q 1012.76 1114.30 1012.61 1115.32   Q 1012.43 1116.54 1012.35 1117.75   Q 1010.84 1140.20 1009.08 1154.74   C 1006.36 1177.18 1004.81 1191.69 1000.79 1209.81   Q 1000.42 1211.50 999.75 1212.25   Q 998.27 1213.92 998.34 1211.71   C 998.88 1194.21 999.85 1163.93 1000.33 1131.53   Q 1000.40 1126.53 999.50 1123.30   Q 996.65 1113.07 992.96 1104.53   Q 991.61 1101.40 987.05 1098.47   C 983.54 1096.22 978.67 1091.83 975.92 1087.30   C 971.81 1080.50 967.29 1071.43 966.36 1063.40   A 0.81 0.80 1.4 0 1 967.29 1062.52   C 974.26 1063.67 980.12 1068.51 985.39 1073.35   Q 989.08 1076.73 990.81 1079.65   Q 991.14 1080.20 991.39 1079.61   Q 991.50 1079.35 991.40 1079.05   Q 989.05 1072.51 985.59 1068.32   C 981.71 1063.61 975.91 1058.73 972.30 1053.78   Q 961.88 1039.48 956.72 1022.75   A 0.73 0.72 84.1 0 1 957.48 1021.81   Q 962.48 1022.33 966.25 1025.04   Q 974.07 1030.68 979.16 1037.07   A 0.35 0.35 0.0 0 0 979.73 1037.03   Q 980.00 1036.60 979.78 1036.12   C 977.57 1031.15 973.42 1025.50 968.15 1018.14   Q 957.86 1003.75 953.44 988.80   Q 952.13 984.36 952.45 979.46   A 0.90 0.90 0.0 0 1 953.69 978.69   Q 955.58 979.49 957.21 980.79   Q 965.83 987.68 971.79 996.06   Q 972.62 997.22 972.32 995.83   Q 972.13 994.91 971.43 993.56   Q 968.65 988.24 966.30 984.53   C 963.98 980.88 959.90 976.33 957.61 971.57   C 953.51 963.02 950.35 957.37 948.45 949.56   Q 947.59 946.01 946.19 939.83   Q 946.04 939.19 946.63 939.47   Q 962.50 946.89 970.84 962.06   A 0.33 0.33 0.0 0 0 971.41 962.07   L 971.64 961.66   A 0.39 0.38 50.9 0 0 971.67 961.32   Q 969.16 954.51 967.02 950.22   C 961.47 939.13 959.11 925.12 958.69 913.80   C 958.50 908.61 959.22 902.98 959.24 897.74   A 0.40 0.39 22.0 0 1 959.91 897.46   Q 961.89 899.37 963.43 901.92   Q 968.33 910.01 970.43 914.60   Z"
       id="path18"
       style="fill:#ffffff;fill-opacity:1" />
    <path
       fill="#000000"
       d="   M 1072.07 996.18   Q 1072.06 996.32 1072.20 996.32   L 1072.53 996.33   A 0.31 0.31 0.0 0 0 1072.83 996.10   Q 1076.13 984.47 1082.58 974.59   Q 1084.24 972.04 1087.17 970.41   A 0.95 0.95 0.0 0 1 1088.56 971.02   Q 1088.99 972.84 1088.77 975.24   Q 1088.75 975.47 1086.89 995.14   Q 1086.74 996.73 1084.55 1007.13   Q 1083.67 1011.28 1081.33 1018.92   Q 1079.04 1026.37 1076.77 1034.90   Q 1076.67 1035.30 1076.80 1035.70   L 1077.00 1036.26   A 0.30 0.29 -45.8 0 0 1077.56 1036.25   Q 1081.55 1023.34 1088.07 1013.51   C 1089.93 1010.69 1092.77 1008.14 1095.47 1006.25   A 0.56 0.56 0.0 0 1 1096.35 1006.70   Q 1096.40 1013.22 1096.20 1019.78   Q 1095.73 1034.65 1091.07 1047.30   Q 1090.02 1050.15 1086.05 1059.02   Q 1082.28 1067.44 1080.42 1082.00   A 0.21 0.21 0.0 0 0 1080.52 1082.21   L 1080.93 1082.44   Q 1081.15 1082.57 1081.21 1082.32   Q 1083.66 1071.42 1088.25 1060.72   Q 1091.02 1054.26 1095.75 1048.36   A 0.23 0.23 0.0 0 1 1096.16 1048.48   Q 1097.42 1059.35 1097.23 1071.74   Q 1097.05 1083.67 1093.16 1093.85   Q 1092.63 1095.23 1092.48 1097.26   Q 1089.16 1140.86 1085.50 1180.49   Q 1085.44 1181.17 1084.89 1181.27   A 0.43 0.42 -8.7 0 1 1084.38 1180.90   Q 1083.66 1174.65 1083.49 1170.00   Q 1082.21 1134.79 1081.37 1105.78   C 1081.24 1101.41 1081.17 1096.14 1079.28 1092.13   C 1074.78 1082.53 1071.07 1074.28 1067.85 1069.68   C 1058.65 1056.53 1051.42 1044.69 1046.40 1030.35   A 1.04 1.04 0.0 0 1 1047.57 1028.99   C 1051.96 1029.82 1056.98 1033.15 1060.52 1036.13   Q 1069.29 1043.52 1070.75 1044.65   A 0.37 0.36 -42.6 0 0 1071.19 1044.66   Q 1071.36 1044.53 1071.43 1044.39   Q 1071.59 1044.04 1071.46 1043.80   C 1070.16 1041.47 1067.86 1038.15 1065.59 1035.70   Q 1052.07 1021.15 1045.19 1003.71   Q 1042.39 996.60 1041.84 990.24   A 0.93 0.92 3.3 0 1 1042.95 989.26   Q 1044.61 989.60 1046.40 990.60   C 1053.24 994.42 1056.73 998.21 1063.88 1005.18   Q 1064.25 1005.54 1064.65 1005.44   Q 1065.15 1005.31 1064.89 1004.87   Q 1063.82 1003.05 1062.46 1001.27   Q 1051.65 987.03 1049.95 984.82   Q 1039.44 971.13 1034.46 953.45   A 0.71 0.71 0.0 0 1 1035.29 952.56   Q 1039.37 953.40 1043.01 956.07   Q 1050.08 961.27 1058.21 969.30   A 0.69 0.69 0.0 0 0 1059.21 969.27   L 1059.38 969.07   Q 1059.54 968.88 1059.41 968.68   C 1056.92 964.84 1054.59 961.87 1051.88 957.23   C 1043.97 943.74 1033.93 931.70 1032.26 916.34   A 0.64 0.63 -73.5 0 1 1033.29 915.78   Q 1043.19 923.77 1048.75 931.00   Q 1051.12 934.08 1050.37 930.27   Q 1048.43 920.44 1047.84 909.17   Q 1047.55 903.65 1048.87 898.96   A 0.90 0.89 22.1 0 1 1050.16 898.42   C 1051.71 899.25 1052.68 900.85 1053.64 902.13   Q 1061.33 912.42 1063.46 924.05   Q 1064.23 928.27 1063.98 936.06   Q 1063.72 943.90 1063.68 948.12   Q 1063.66 949.71 1064.49 948.35   Q 1064.86 947.73 1065.31 946.36   Q 1068.08 937.96 1070.39 932.13   Q 1070.52 931.79 1070.64 931.60   A 0.86 0.86 0.0 0 1 1072.01 931.50   Q 1073.56 933.23 1074.17 935.60   C 1078.86 953.93 1077.22 973.36 1072.74 991.30   C 1072.36 992.83 1072.31 994.38 1072.07 996.18   Z"
       id="path19"
       style="fill:#ffffff;fill-opacity:1" />
    <path
       fill="#000000"
       d="   M 832.98 1066.48   Q 834.97 1061.87 839.24 1054.29   Q 842.49 1048.53 848.03 1045.36   A 1.28 1.27 -20.5 0 1 849.92 1046.22   C 851.53 1054.52 849.76 1063.98 846.94 1072.14   C 844.75 1078.49 840.43 1083.20 837.71 1089.77   Q 835.47 1095.18 832.57 1099.23   Q 832.37 1099.51 832.63 1099.77   A 0.42 0.42 0.0 0 0 833.22 1099.77   C 836.69 1096.35 838.67 1092.47 841.07 1088.50   C 842.86 1085.55 847.20 1080.96 850.93 1080.38   A 0.71 0.71 0.0 0 1 851.75 1081.11   Q 851.11 1094.64 846.83 1106.81   Q 844.59 1113.16 838.85 1119.21   C 836.55 1121.63 835.22 1129.32 832.77 1138.23   Q 829.94 1148.52 827.98 1154.32   Q 823.37 1167.96 818.58 1179.53   Q 817.72 1181.62 816.81 1182.27   Q 814.68 1183.79 815.20 1181.22   C 816.50 1174.82 818.80 1167.24 820.21 1160.97   C 824.07 1143.78 826.71 1132.58 828.32 1118.02   Q 828.47 1116.71 827.51 1115.80   C 824.91 1113.36 821.95 1111.18 819.95 1108.35   Q 812.29 1097.48 810.03 1083.58   Q 809.70 1081.60 810.24 1080.65   A 1.52 1.52 0.0 0 1 812.27 1080.04   Q 816.08 1082.03 818.93 1084.87   Q 824.61 1090.56 829.10 1097.29   Q 829.25 1097.52 829.52 1097.52   L 829.94 1097.52   A 0.53 0.53 0.0 0 0 830.43 1096.77   Q 826.73 1088.85 821.58 1081.46   C 818.59 1077.16 816.14 1074.12 814.21 1069.67   Q 809.07 1057.84 807.51 1047.16   A 1.01 1.01 0.0 0 1 808.68 1046.02   Q 810.01 1046.26 812.41 1048.27   Q 820.17 1054.76 825.07 1060.55   A 0.14 0.14 0.0 0 0 825.32 1060.46   L 825.33 1059.39   A 1.46 1.45 -64.1 0 0 825.01 1058.45   Q 813.74 1043.92 811.36 1038.99   Q 805.32 1026.46 803.40 1013.48   A 1.32 1.05 71.6 0 1 803.85 1012.26   Q 804.36 1011.93 805.50 1012.44   Q 808.17 1013.61 811.22 1016.45   Q 817.56 1022.36 823.65 1028.35   A 0.28 0.28 0.0 0 0 824.00 1028.39   L 824.24 1028.25   Q 824.51 1028.08 824.32 1027.84   Q 819.40 1021.61 814.16 1014.10   C 808.49 1005.97 805.65 996.66 803.71 986.92   A 1.41 1.41 0.0 0 1 805.50 985.29   C 808.97 986.34 813.42 991.85 818.48 997.06   Q 818.86 997.46 819.09 996.96   Q 819.47 996.10 819.01 995.26   Q 816.70 991.07 811.35 982.64   C 808.42 978.04 808.24 973.67 806.90 966.52   Q 806.64 965.14 807.31 963.44   A 0.75 0.74 -74.8 0 1 808.10 962.98   C 810.79 963.35 813.97 968.04 814.90 970.09   A 0.75 0.74 -39.2 0 0 816.18 970.21   Q 816.22 970.16 816.12 969.75   Q 813.43 958.18 815.39 944.47   Q 815.43 944.23 815.66 944.17   Q 815.80 944.14 815.94 944.14   Q 816.24 944.14 816.41 944.40   Q 820.53 950.79 823.91 959.63   Q 824.13 960.22 824.30 960.20   A 1.72 1.53 -85.4 0 0 825.66 958.90   Q 826.84 954.02 828.13 950.42   Q 828.78 948.58 830.59 949.15   A 1.72 1.70 3.6 0 1 831.75 950.45   C 834.04 962.49 834.77 972.89 832.12 984.93   C 831.08 989.64 828.10 995.94 826.64 999.26   Q 826.42 999.74 826.65 999.98   Q 827.05 1000.39 827.37 999.92   C 831.52 993.98 836.16 986.26 843.57 981.92   A 0.65 0.64 -23.3 0 1 844.51 982.29   Q 844.76 983.15 844.59 984.52   Q 842.95 997.33 840.51 1007.03   Q 839.66 1010.42 837.92 1012.95   Q 831.34 1022.50 826.61 1030.70   Q 826.28 1031.28 826.48 1031.91   L 826.64 1032.41   Q 826.86 1033.11 827.30 1032.53   Q 831.66 1026.85 835.57 1021.09   C 838.38 1016.94 841.53 1015.17 846.14 1011.90   A 0.69 0.69 0.0 0 1 847.22 1012.57   Q 845.78 1022.37 844.39 1031.93   Q 843.95 1035.00 842.35 1039.65   C 840.05 1046.32 835.69 1052.08 834.05 1059.19   Q 833.39 1062.05 832.29 1065.44   A 0.61 0.60 -53.4 0 0 832.36 1065.96   L 832.74 1066.51   Q 832.88 1066.71 832.98 1066.48   Z"
       id="path20"
       style="fill:#ffffff;fill-opacity:1" />
  </g>
  <path
     fill="#fdfdfd"
     d="   M 1005.97 501.86   Q 1005.96 501.47 1006.05 501.20   L 1029.76 500.97   A 1.00 0.99 -90.0 0 0 1030.74 499.98   L 1030.96 476.02   A 0.73 0.73 0.0 0 1 1031.69 475.30   L 1032.09 475.30   A 0.54 0.53 -0.0 0 1 1032.63 475.83   L 1032.91 500.41   A 0.55 0.54 0.0 0 0 1033.46 500.95   L 1059.39 500.66   Q 1060.58 500.65 1060.62 501.83   L 1060.63 502.17   Q 1060.64 502.33 1060.48 502.33   L 1033.50 502.33   A 0.54 0.54 0.0 0 0 1032.96 502.86   L 1032.69 533.10   Q 1032.69 533.31 1032.47 533.31   L 1032.17 533.33   Q 1031.72 533.34 1031.70 532.89   L 1030.60 502.95   A 0.55 0.55 0.0 0 0 1030.05 502.42   Q 1021.22 502.58 1013.00 502.40   Q 1008.32 502.29 1005.97 501.86   Z"
     id="path21"
     style="fill:#ffffff" />
  <g
     id="g34"
     style="fill:#ffffff">
    <path
       fill="#000000"
       d="   M 976.75 352.53   Q 976.08 363.65 974.87 406.35   A 0.34 0.33 3.2 0 1 974.50 406.67   L 974.19 406.65   Q 973.97 406.63 973.96 406.41   C 971.89 372.58 972.23 334.14 972.34 307.50   Q 972.47 275.94 974.61 253.26   Q 974.80 251.22 975.58 247.66   A 0.68 0.67 21.5 0 1 976.58 247.23   Q 977.19 247.58 977.28 248.42   Q 977.75 252.59 977.80 254.88   Q 978.41 283.27 977.97 319.27   Q 977.77 335.46 976.75 352.53   Z"
       id="path22"
       style="fill:#ffffff" />
    <path
       fill="#000000"
       d="   M 998.31 291.81   A 0.45 0.44 66.2 0 0 998.56 291.91   L 1023.10 292.49   A 1.45 1.44 -89.8 0 1 1024.51 293.92   L 1024.86 325.51   A 1.11 1.11 0.0 0 1 1023.75 326.63   L 997.70 326.63   Q 996.65 326.63 996.65 325.58   L 996.65 255.64   A 0.72 0.72 0.0 0 1 997.39 254.92   L 1024.26 255.69   Q 1026.09 255.74 1025.52 257.49   Q 1024.82 259.63 1024.75 263.53   Q 1024.64 269.70 1024.40 289.05   A 1.23 1.22 -89.8 0 1 1023.19 290.26   L 997.76 290.54   A 0.36 0.36 0.0 0 0 997.53 291.18   L 998.31 291.81   Z"
       id="path23"
       style="fill:#ffffff" />
    <path
       fill="#000000"
       d="   M 1036.99 291.28   Q 1036.88 291.44 1036.85 291.58   A 0.34 0.34 0.0 0 0 1037.13 292.00   Q 1045.16 293.03 1053.10 292.18   Q 1053.33 292.16 1053.32 291.93   L 1053.31 291.52   A 0.54 0.53 1.2 0 0 1052.82 291.01   Q 1044.95 290.33 1036.99 291.28   Q 1036.99 291.15 1037.00 291.03   Q 1037.00 290.99 1037.04 290.98   Q 1037.67 290.80 1038.34 290.88   Q 1038.36 290.88 1038.36 290.90   L 1038.36 290.91   Q 1038.35 290.92 1038.33 290.92   L 1027.90 290.88   A 1.67 1.67 0.0 0 1 1026.24 289.22   Q 1026.21 284.94 1026.61 259.29   Q 1026.63 258.04 1026.47 257.45   Q 1026.10 255.99 1027.61 255.97   L 1055.79 255.66   A 0.53 0.53 0.0 0 1 1056.33 256.19   Q 1056.21 272.35 1056.11 288.56   C 1056.10 289.54 1055.35 290.68 1055.65 291.71   Q 1056.12 293.36 1056.12 298.76   Q 1056.13 312.53 1055.69 326.10   A 0.51 0.51 0.0 0 1 1055.18 326.60   L 1027.88 326.60   A 1.24 1.24 0.0 0 1 1026.64 325.37   L 1026.29 293.96   Q 1026.27 292.09 1028.12 292.31   Q 1032.25 292.78 1036.99 291.28   Z"
       id="path24"
       style="fill:#ffffff" />
    <path
       fill="#000000"
       d="   M 1070.41 315.24   C 1070.47 303.55 1071.09 291.20 1072.28 279.17   A 0.77 0.76 4.9 0 1 1073.11 278.48   L 1073.53 278.52   A 0.43 0.42 0.8 0 1 1073.92 278.92   Q 1074.85 294.31 1075.00 308.01   C 1075.77 378.77 1076.53 432.73 1076.45 494.52   C 1076.43 515.40 1075.50 536.34 1074.68 557.20   Q 1074.61 559.16 1074.43 559.54   Q 1073.18 562.32 1073.09 559.27   Q 1072.06 524.17 1070.72 476.76   Q 1070.48 468.26 1070.42 456.75   Q 1070.04 388.43 1070.41 315.24   Z"
       id="path25"
       style="fill:#ffffff" />
    <path
       fill="#000000"
       d="   M 937.39 308.80   C 937.89 309.94 939.12 311.51 939.31 312.75   Q 939.62 314.82 939.56 319.04   Q 938.76 378.12 936.94 444.01   Q 936.76 450.53 936.53 463.99   Q 935.37 530.50 934.19 596.98   A 0.32 0.32 0.0 0 1 933.87 597.29   L 933.48 597.29   Q 933.33 597.29 933.33 597.14   C 932.85 579.20 932.72 557.44 932.27 537.51   Q 930.83 472.83 931.07 459.25   Q 932.51 376.90 933.07 364.25   Q 934.70 327.24 935.07 323.00   Q 935.46 318.41 935.84 313.81   C 935.99 312.07 937.07 310.67 937.02 309.05   Q 936.60 296.93 938.55 284.43   Q 938.58 284.25 938.76 284.25   L 939.29 284.26   Q 939.49 284.26 939.49 284.45   Q 939.47 291.01 939.42 297.42   Q 939.41 298.88 937.60 305.75   Q 937.02 307.94 937.39 308.80   Z"
       id="path26"
       style="fill:#ffffff" />
    <path
       fill="#fdfdfd"
       d="   M 1036.99 291.28   Q 1044.95 290.33 1052.82 291.01   A 0.54 0.53 1.2 0 1 1053.31 291.52   L 1053.32 291.93   Q 1053.33 292.16 1053.10 292.18   Q 1045.16 293.03 1037.13 292.00   A 0.34 0.34 0.0 0 1 1036.85 291.58   Q 1036.88 291.44 1036.99 291.28   Z"
       id="path27"
       style="fill:#ffffff" />
    <path
       fill="#000000"
       d="   M 1114.50 598.50   Q 1114.50 598.68 1114.34 598.61   L 1114.02 598.49   A 0.56 0.56 0.0 0 1 1113.66 598.00   Q 1111.01 563.29 1110.22 544.54   Q 1109.56 528.92 1110.27 506.23   Q 1111.20 475.96 1112.07 446.75   C 1112.55 430.47 1114.79 400.49 1115.90 373.52   C 1116.72 353.78 1116.72 344.70 1117.84 333.38   Q 1117.92 332.56 1118.53 332.57   A 0.31 0.31 0.0 0 1 1118.84 332.88   Q 1118.76 363.29 1118.62 385.75   Q 1118.53 401.48 1115.90 456.26   Q 1115.42 466.39 1115.25 476.24   C 1114.30 532.70 1113.19 557.77 1114.50 598.50   Z"
       id="path28"
       style="fill:#ffffff" />
    <path
       fill="#000000"
       d="   M 1160.97 356.30   A 0.47 0.47 0.0 0 1 1161.79 356.02   L 1161.99 356.25   Q 1162.10 356.37 1162.10 356.54   C 1163.04 403.71 1162.02 450.55 1161.46 497.51   C 1161.23 516.67 1160.45 534.49 1159.78 555.25   Q 1159.26 571.40 1156.97 599.74   A 0.45 0.45 0.0 0 1 1156.48 600.16   L 1156.21 600.14   A 0.63 0.63 0.0 0 1 1155.63 599.51   C 1155.64 589.56 1155.65 579.22 1155.90 570.21   Q 1157.45 515.25 1157.72 475.26   C 1157.99 434.46 1158.32 395.43 1160.97 356.30   Z"
       id="path29"
       style="fill:#ffffff" />
    <path
       fill="#000000"
       d="   M 1207.09 529.70   A 0.40 0.40 0.0 0 1 1206.49 530.02   L 1206.13 529.81   Q 1205.98 529.72 1205.97 529.55   Q 1204.71 473.19 1204.65 427.78   Q 1204.63 414.16 1205.56 396.39   Q 1205.58 396.15 1206.37 394.85   Q 1206.52 394.60 1206.83 394.53   Q 1207.79 394.31 1207.90 395.29   Q 1208.57 401.63 1209.02 419.81   Q 1210.41 475.76 1207.09 529.70   Z"
       id="path30"
       style="fill:#ffffff" />
    <path
       fill="#000000"
       d="   M 1189.33 440.50   Q 1190.68 478.36 1190.27 516.00   Q 1190.08 534.39 1188.91 590.87   Q 1188.90 591.55 1188.22 591.55   L 1187.85 591.56   A 0.29 0.29 0.0 0 1 1187.56 591.28   Q 1186.56 550.05 1186.37 512.76   Q 1186.23 483.68 1187.36 452.73   Q 1187.59 446.55 1188.54 440.83   Q 1188.57 440.66 1188.72 440.46   Q 1188.88 440.24 1189.11 440.27   A 0.24 0.24 0.0 0 1 1189.33 440.50   Z"
       id="path31"
       style="fill:#ffffff" />
    <path
       fill="#000000"
       d="   M 683.77 461.02   Q 684.70 461.02 684.80 462.00   Q 685.71 471.08 685.98 483.78   Q 686.81 523.16 685.96 560.51   Q 685.55 578.17 684.74 588.67   Q 684.69 589.27 683.97 589.27   Q 683.26 589.27 683.21 588.67   Q 682.36 578.18 681.90 560.52   Q 680.93 523.17 681.63 483.79   Q 681.86 471.09 682.75 462.00   Q 682.84 461.02 683.77 461.02   Z"
       id="path32"
       style="fill:#ffffff" />
    <path
       fill="#000000"
       d="   M 709.20 503.31   Q 709.51 503.98 710.36 504.02   Q 717.14 504.32 728.00 504.31   Q 730.86 504.31 733.88 503.76   A 0.91 0.90 84.7 0 1 734.95 504.65   L 734.95 540.48   A 0.49 0.49 0.0 0 0 735.44 540.97   L 736.01 540.97   A 0.83 0.72 -90.0 0 0 736.73 540.14   L 736.73 504.71   A 0.94 0.93 6.0 0 1 737.86 503.80   Q 739.17 504.07 740.55 504.12   Q 749.43 504.40 762.12 503.91   Q 762.29 503.90 762.29 503.73   L 762.29 503.24   A 0.56 0.56 0.0 0 0 761.76 502.68   Q 749.65 501.95 737.64 502.91   Q 737.13 502.95 736.75 502.61   Q 735.79 501.77 734.90 502.59   Q 734.51 502.95 733.98 502.91   Q 722.21 502.02 710.47 502.68   Q 708.81 501.91 706.94 502.63   Q 705.74 503.08 705.74 501.81   L 705.74 463.22   A 0.74 0.74 0.0 0 1 706.49 462.48   L 734.05 462.73   A 0.87 0.87 0.0 0 1 734.92 463.59   Q 735.19 480.59 734.93 495.01   Q 734.90 496.20 735.31 498.35   Q 735.73 500.60 736.40 498.41   Q 736.64 497.62 736.63 496.00   Q 736.49 479.27 736.42 467.35   C 736.41 466.58 736.72 464.86 736.33 463.93   A 0.96 0.95 -11.2 0 1 737.22 462.61   L 763.51 462.85   A 0.63 0.63 0.0 0 1 764.14 463.49   Q 764.11 477.66 764.03 499.09   Q 764.03 499.23 763.60 502.35   C 763.37 503.97 764.07 505.43 764.06 506.90   Q 764.03 519.97 764.16 543.44   A 0.44 0.44 0.0 0 1 763.72 543.89   Q 751.86 543.88 739.98 543.88   Q 739.71 543.88 736.57 543.36   Q 735.37 543.16 734.15 543.48   Q 732.60 543.88 731.83 543.88   Q 720.92 543.90 706.57 543.90   A 0.74 0.73 0.4 0 1 705.84 543.17   L 705.79 504.44   Q 705.79 502.65 707.46 503.45   Q 708.05 503.73 709.20 503.31   Z"
       id="path33"
       style="fill:#ffffff" />
    <path
       fill="#fdfdfd"
       d="   M 709.20 503.31   L 710.47 502.68   Q 722.21 502.02 733.98 502.91   Q 734.51 502.95 734.90 502.59   Q 735.79 501.77 736.75 502.61   Q 737.13 502.95 737.64 502.91   Q 749.65 501.95 761.76 502.68   A 0.56 0.56 0.0 0 1 762.29 503.24   L 762.29 503.73   Q 762.29 503.90 762.12 503.91   Q 749.43 504.40 740.55 504.12   Q 739.17 504.07 737.86 503.80   A 0.94 0.93 6.0 0 0 736.73 504.71   L 736.73 540.14   A 0.83 0.72 90.0 0 1 736.01 540.97   L 735.44 540.97   A 0.49 0.49 0.0 0 1 734.95 540.48   L 734.95 504.65   A 0.91 0.90 84.7 0 0 733.88 503.76   Q 730.86 504.31 728.00 504.31   Q 717.14 504.32 710.36 504.02   Q 709.51 503.98 709.20 503.31   Z"
       id="path34"
       style="fill:#ffffff" />
  </g>
</svg>
